<svg width="20" height="20" viewBox="0 0 20 20" fill="none" xmlns="http://www.w3.org/2000/svg">
<g clip-path="url(#clip0_1_5975)">
<path d="M5.6 1.45917V1.66H5.38333C4.7513 1.66066 4.14535 1.90243 3.69852 2.33224C3.25168 2.76205 3.00046 3.34477 3 3.9525L3 17.7075C3.00046 18.3152 3.25168 18.898 3.69852 19.3278C4.14535 19.7576 4.7513 19.9993 5.38333 20H13.6167C14.2487 19.9993 14.8546 19.7576 15.3015 19.3278C15.7483 18.898 15.9995 18.3152 16 17.7075V3.9525C15.9995 3.34477 15.7483 2.76205 15.3015 2.33224C14.8546 1.90243 14.2487 1.66066 13.6167 1.66H13.4V1.45917C13.3998 1.07238 13.2399 0.701494 12.9556 0.427919C12.6712 0.154345 12.2856 0.000442505 11.8833 0H7.11667C6.71441 0.000442505 6.32878 0.154345 6.04442 0.427919C5.76007 0.701494 5.60023 1.07238 5.6 1.45917ZM12.75 14.1667C12.9224 14.1667 13.0877 14.2325 13.2096 14.3497C13.3315 14.4669 13.4 14.6259 13.4 14.7917V16.875C13.4 17.0408 13.3315 17.1997 13.2096 17.3169C13.0877 17.4342 12.9224 17.5 12.75 17.5H6.25C6.16457 17.5 6.07997 17.4838 6.00106 17.4523C5.92214 17.4209 5.85044 17.3748 5.79007 17.3166C5.7297 17.2585 5.68184 17.1895 5.64923 17.1136C5.61661 17.0377 5.59989 16.9563 5.6 16.8742V14.7908C5.60023 14.6252 5.66881 14.4665 5.79069 14.3494C5.91256 14.2324 6.07776 14.1667 6.25 14.1667H12.75ZM12.75 9.16667C12.9224 9.16667 13.0877 9.23252 13.2096 9.34973C13.3315 9.46694 13.4 9.62591 13.4 9.79167V11.875C13.4 12.0408 13.3315 12.1997 13.2096 12.3169C13.0877 12.4342 12.9224 12.5 12.75 12.5H6.25C6.16435 12.5 6.07954 12.4837 6.00045 12.4521C5.92136 12.4205 5.84955 12.3742 5.78915 12.3158C5.72875 12.2574 5.68094 12.1881 5.64848 12.1119C5.61602 12.0357 5.59954 11.954 5.6 11.8717V9.78833C5.6 9.62257 5.66848 9.4636 5.79038 9.34639C5.91228 9.22918 6.07761 9.16333 6.25 9.16333L12.75 9.16667ZM12.75 4.16667C12.9224 4.16667 13.0877 4.23251 13.2096 4.34972C13.3315 4.46694 13.4 4.62591 13.4 4.79167L13.4 6.875C13.4 7.04076 13.3315 7.19973 13.2096 7.31694C13.0877 7.43415 12.9224 7.5 12.75 7.5H6.25C6.07761 7.5 5.91228 7.43415 5.79038 7.31694C5.66848 7.19973 5.6 7.04076 5.6 6.875V4.79167C5.6 4.62591 5.66848 4.46694 5.79038 4.34972C5.91228 4.23251 6.07761 4.16667 6.25 4.16667H12.75Z" fill="#DE3409"/>
</g>
<defs>
<clipPath id="clip0_1_5975">
<rect width="13" height="20" fill="white" transform="translate(3)"/>
</clipPath>
</defs>
</svg>
