<svg width="75" height="75" viewBox="0 0 75 75" fill="none" xmlns="http://www.w3.org/2000/svg">
<circle cx="37.5005" cy="37.5" r="36" stroke="#FFBB00" stroke-width="3"/>
<g clip-path="url(#clip0_1_1646)">
<g clip-path="url(#clip1_1_1646)">
<path d="M38.0004 26C30.3581 26 23.4274 30.2087 18.3134 37.0446C18.1102 37.3196 18.0005 37.6531 18.0005 37.9958C18.0005 38.3385 18.1102 38.672 18.3134 38.947C23.4274 45.7916 30.3581 50 38.0004 50C45.6428 50 52.5734 45.7913 57.6874 38.9554C57.8906 38.6804 58.0004 38.3469 58.0004 38.0042C58.0004 37.6615 57.8906 37.328 57.6874 37.053C52.5734 30.2087 45.6428 26 38.0004 26ZM38.5488 46.4502C36.8417 46.5624 35.1413 46.1481 33.6741 45.2626C32.207 44.3771 31.0429 43.0624 30.3371 41.4939C29.6313 39.9254 29.4173 38.1776 29.7236 36.4836C30.03 34.7895 30.8421 33.2297 32.0517 32.0121C33.2614 30.7946 34.811 29.9771 36.494 29.6688C38.1771 29.3604 39.9135 29.5758 41.4718 30.2863C43.0301 30.9967 44.3361 32.1684 45.2159 33.6452C46.0956 35.1219 46.5072 36.8335 46.3958 38.5518C46.2617 40.6022 45.3919 42.5338 43.9484 43.9869C42.5048 45.44 40.5859 46.3155 38.5488 46.4505V46.4502ZM38.2951 42.5461C37.3763 42.6055 36.4613 42.3817 35.672 41.9044C34.8827 41.4272 34.2567 40.7192 33.8773 39.8748C33.4979 39.0304 33.3831 38.0896 33.5482 37.1779C33.7134 36.2662 34.1506 35.4268 34.8017 34.7715C35.4528 34.1162 36.2868 33.6761 37.1926 33.51C38.0984 33.3438 39.033 33.4594 39.8718 33.8414C40.7107 34.2234 41.4141 34.8536 41.8881 35.648C42.3622 36.4425 42.5845 37.3635 42.5254 38.2884C42.4564 39.3949 41.9885 40.4381 41.2097 41.2221C40.4308 42.006 39.3944 42.477 38.2951 42.5464V42.5461Z" fill="#FFBB00"/>
</g>
</g>
<defs>
<clipPath id="clip0_1_1646">
<rect width="40" height="40" fill="white" transform="translate(18.0005 18)"/>
</clipPath>
<clipPath id="clip1_1_1646">
<rect width="40" height="24" fill="white" transform="translate(18.0005 26)"/>
</clipPath>
</defs>
</svg>
