<svg width="75" height="75" viewBox="0 0 75 75" fill="none" xmlns="http://www.w3.org/2000/svg">
<circle cx="37.5005" cy="37.4999" r="36" stroke="#FFBB00" stroke-width="3"/>
<g clip-path="url(#clip0_1_1639)">
<path d="M19.404 42.6746V25.6561C19.404 24.7104 20.1706 23.9437 21.1164 23.9437H38.1262C39.0719 23.9437 39.8385 24.7104 39.8385 25.6561V42.6747C39.8385 42.9899 39.583 43.2455 39.2677 43.2455H19.9748C19.6595 43.2455 19.404 42.9899 19.404 42.6746ZM33.14 48.5048C33.14 50.4662 31.5498 52.0563 29.5885 52.0563C27.6271 52.0563 26.037 50.4662 26.037 48.5048C26.037 46.5433 27.6271 44.9533 29.5885 44.9533C31.5498 44.9533 33.14 46.5433 33.14 48.5048ZM31.3641 48.5048C31.3641 47.5241 30.5691 46.7291 29.5884 46.7291C28.6077 46.7291 27.8126 47.5241 27.8126 48.5048C27.8126 49.4855 28.6077 50.2806 29.5884 50.2806C30.5691 50.2806 31.3641 49.4855 31.3641 48.5048ZM26.5296 44.9532H18.5713C18.256 44.9532 18.0005 45.2088 18.0005 45.524V47.2557C18.0005 47.571 18.256 47.8265 18.5713 47.8265H24.9502C25.1168 46.6838 25.6936 45.6744 26.5296 44.9532ZM51.7219 48.5048C51.7219 50.4662 50.1318 52.0563 48.1704 52.0563C46.209 52.0563 44.6189 50.4662 44.6189 48.5048C44.6189 46.5433 46.209 44.9533 48.1704 44.9533C50.1318 44.9532 51.7219 46.5433 51.7219 48.5048ZM49.9462 48.5048C49.9462 47.5241 49.1511 46.7291 48.1704 46.7291C47.1896 46.7291 46.3947 47.5241 46.3947 48.5048C46.3947 49.4855 47.1897 50.2806 48.1704 50.2806C49.1511 50.2806 49.9462 49.4855 49.9462 48.5048ZM58.0005 45.524V47.2557C58.0005 47.571 57.7449 47.8265 57.4297 47.8265H52.8085C52.478 45.5597 50.5271 43.8117 48.1706 43.8117C45.8136 43.8117 43.8626 45.5597 43.5321 47.8265H34.2267C34.0601 46.6838 33.4834 45.6744 32.6474 44.9532H41.4705V28.6271C41.4705 27.9966 41.9816 27.4855 42.6121 27.4855H48.0006C49.5179 27.4855 50.936 28.2391 51.7849 29.4966L55.2588 34.6418C55.7683 35.3965 56.0406 36.2863 56.0406 37.1969V44.9532H57.4297C57.7449 44.9532 58.0005 45.2088 58.0005 45.524ZM52.2102 34.7735L49.4323 30.8263C49.3254 30.6744 49.1513 30.584 48.9655 30.584H44.6325C44.3174 30.584 44.0617 30.8395 44.0617 31.1548V35.102C44.0617 35.4173 44.3173 35.6728 44.6325 35.6728H51.7435C52.2058 35.6728 52.4763 35.1517 52.2102 34.7735Z" fill="#FFBB00"/>
</g>
<defs>
<clipPath id="clip0_1_1639">
<rect width="40" height="40" fill="white" transform="translate(18.0005 17.9999)"/>
</clipPath>
</defs>
</svg>
