<svg width="83" height="83" viewBox="0 0 83 83" fill="none" xmlns="http://www.w3.org/2000/svg">
<g filter="url(#filter0_d_1_1616)">
<circle cx="41.5" cy="37.5" r="36" stroke="#FFBB00" stroke-width="3"/>
<g clip-path="url(#clip0_1_1616)">
<path d="M61.9291 24.0357C61.8983 23.8202 61.8082 23.6176 61.6687 23.4504C61.5293 23.2833 61.3461 23.1583 61.1396 23.0894C60.9331 23.0205 60.7115 23.0105 60.4997 23.0604C60.2878 23.1103 60.094 23.2182 59.94 23.372L58.2829 25.0302C57.8364 25.4567 57.2427 25.6946 56.6253 25.6946C56.0079 25.6946 55.4142 25.4567 54.9677 25.0302C54.7498 24.8127 54.577 24.5544 54.459 24.2701C54.3411 23.9858 54.2804 23.681 54.2804 23.3731C54.2804 23.0653 54.3411 22.7605 54.459 22.4762C54.577 22.1918 54.7498 21.9335 54.9677 21.716L56.6247 20.059C56.7788 19.905 56.8869 19.7112 56.9369 19.4993C56.987 19.2873 56.977 19.0656 56.9082 18.859C56.8393 18.6524 56.7143 18.4691 56.547 18.3296C56.3798 18.1901 56.1771 18.0999 55.9615 18.0691C54.8103 17.9047 53.6362 18.0283 52.5446 18.429C51.4529 18.8297 50.4776 19.4949 49.7061 20.365C48.9346 21.2351 48.391 22.283 48.1239 23.4148C47.8568 24.5466 47.8746 25.727 48.1757 26.8502L30.8491 44.176C29.7258 43.8754 28.5454 43.8579 27.4136 44.1252C26.2819 44.3925 25.234 44.9362 24.3639 45.7077C23.4938 46.4792 22.8285 47.4545 22.4277 48.5461C22.0268 49.6377 21.9029 50.8117 22.0669 51.963C22.0977 52.1784 22.1879 52.3811 22.3273 52.5482C22.4668 52.7153 22.65 52.8403 22.8565 52.9092C23.0629 52.9781 23.2845 52.9882 23.4964 52.9382C23.7082 52.8883 23.902 52.7804 24.056 52.6266L25.7131 50.9684C26.1596 50.542 26.7533 50.304 27.3707 50.304C27.9882 50.304 28.5819 50.542 29.0284 50.9684C29.2462 51.1859 29.4191 51.4442 29.537 51.7285C29.6549 52.0129 29.7156 52.3177 29.7156 52.6255C29.7156 52.9333 29.6549 53.2381 29.537 53.5225C29.4191 53.8068 29.2462 54.0651 29.0284 54.2826L27.3713 55.9397C27.2175 56.0937 27.1096 56.2875 27.0596 56.4993C27.0097 56.7112 27.0198 56.9328 27.0887 57.1392C27.1575 57.3457 27.2825 57.5289 27.4497 57.6684C27.6168 57.8078 27.8195 57.898 28.0349 57.9288C29.1861 58.0932 30.3601 57.9694 31.4517 57.5687C32.5434 57.168 33.5186 56.5029 34.29 55.6327C35.0615 54.7626 35.6051 53.7148 35.8722 52.583C36.1392 51.4512 36.1215 50.2709 35.8204 49.1477L53.1469 31.8215C54.2702 32.1221 55.4504 32.1396 56.5821 31.8724C57.7138 31.6051 58.7615 31.0615 59.6316 30.2901C60.5017 29.5187 61.167 28.5437 61.5679 27.4522C61.9689 26.3607 62.093 25.1869 61.9291 24.0357Z" fill="#FFBB00"/>
<path d="M54.9676 43.9346C54.3597 43.9423 53.7555 44.0301 53.1705 44.1957L48.6276 39.6531L43.6538 44.6266L48.1953 49.1691C48.0297 49.7545 47.942 50.3591 47.9342 50.9673C47.9342 52.3583 48.3466 53.718 49.1194 54.8745C49.8922 56.031 50.9905 56.9324 52.2756 57.4647C53.5607 57.997 54.9747 58.1363 56.3389 57.8649C57.7031 57.5935 58.9562 56.9237 59.9398 55.9402C60.9233 54.9567 61.5931 53.7035 61.8645 52.3393C62.1359 50.9751 61.9966 49.5611 61.4643 48.276C60.932 46.9909 60.0306 45.8926 58.8741 45.1198C57.7176 44.347 56.3578 43.9346 54.9669 43.9346H54.9676ZM58.8134 50.7328L58.1164 53.3335C58.0629 53.5321 57.9582 53.7132 57.8127 53.8586C57.6673 54.0041 57.4862 54.1087 57.2876 54.1622L54.6869 54.8593C54.4882 54.9127 54.279 54.9127 54.0802 54.8595C53.8815 54.8063 53.7003 54.7016 53.5549 54.556L51.6513 52.6524C51.5057 52.507 51.401 52.3258 51.3478 52.1271C51.2945 51.9284 51.2946 51.7191 51.348 51.5204L52.0451 48.9197C52.0986 48.7211 52.2033 48.54 52.3487 48.3946C52.4941 48.2491 52.6752 48.1444 52.8738 48.0909L55.4745 47.3939C55.6732 47.3397 55.8826 47.3393 56.0815 47.3926C56.2804 47.4459 56.4615 47.551 56.6065 47.6971L58.5102 49.6008C58.6557 49.7462 58.7604 49.9274 58.8136 50.1261C58.8669 50.3248 58.8668 50.5341 58.8134 50.7328Z" fill="#FFBB00"/>
<path d="M35.8226 26.7862C36.1394 25.5932 36.138 24.3381 35.8185 23.1459C35.4989 21.9537 34.8724 20.8662 34.0015 19.9916C32.6615 18.7132 30.8806 17.9999 29.0286 17.9999C27.1765 17.9999 25.3957 18.7132 24.0557 19.9916C22.9612 21.0866 22.2585 22.5121 22.0566 24.047C21.8548 25.582 22.165 27.1407 22.9392 28.4815C23.7133 29.8222 24.9082 30.87 26.3385 31.4625C27.7689 32.055 29.3547 32.1591 30.8502 31.7585L35.3731 36.3462L40.3462 31.3734L35.8226 26.7862ZM32.7571 24.6123L32.06 27.2131C32.0066 27.4117 31.9019 27.5927 31.7564 27.7382C31.611 27.8836 31.4299 27.9883 31.2313 28.0418L28.6306 28.7389C28.4319 28.7922 28.2226 28.7923 28.0239 28.7391C27.8252 28.6858 27.644 28.5812 27.4986 28.4356L25.5953 26.532C25.4498 26.3866 25.3451 26.2054 25.2919 26.0066C25.2386 25.8079 25.2387 25.5987 25.292 25.4L25.9891 22.8C26.0426 22.6014 26.1473 22.4203 26.2927 22.2749C26.4382 22.1294 26.6192 22.0247 26.8179 21.9712L29.4175 21.2727C29.6162 21.219 29.8255 21.2188 30.0243 21.2721C30.2231 21.3253 30.4042 21.4302 30.5495 21.576L32.4531 23.4796C32.599 23.625 32.7039 23.8064 32.7573 24.0053C32.8106 24.2043 32.8106 24.4138 32.7571 24.6127V24.6123Z" fill="#FFBB00"/>
</g>
</g>
<defs>
<filter id="filter0_d_1_1616" x="0" y="0" width="83" height="83" filterUnits="userSpaceOnUse" color-interpolation-filters="sRGB">
<feFlood flood-opacity="0" result="BackgroundImageFix"/>
<feColorMatrix in="SourceAlpha" type="matrix" values="0 0 0 0 0 0 0 0 0 0 0 0 0 0 0 0 0 0 127 0" result="hardAlpha"/>
<feOffset dy="4"/>
<feGaussianBlur stdDeviation="2"/>
<feComposite in2="hardAlpha" operator="out"/>
<feColorMatrix type="matrix" values="0 0 0 0 0 0 0 0 0 0 0 0 0 0 0 0 0 0 0.25 0"/>
<feBlend mode="normal" in2="BackgroundImageFix" result="effect1_dropShadow_1_1616"/>
<feBlend mode="normal" in="SourceGraphic" in2="effect1_dropShadow_1_1616" result="shape"/>
</filter>
<clipPath id="clip0_1_1616">
<rect width="40" height="40" fill="white" transform="translate(22 18)"/>
</clipPath>
</defs>
</svg>
