<svg width="75" height="75" viewBox="0 0 75 75" fill="none" xmlns="http://www.w3.org/2000/svg">
<circle cx="37.5" cy="37.5" r="36" stroke="#FFBB00" stroke-width="3"/>
<g clip-path="url(#clip0_1_1653)">
<path d="M38 18C26.972 18 18 26.972 18 38C18 49.028 26.972 58 38 58C49.028 58 58 49.028 58 38C58 26.972 49.028 18 38 18ZM50.5367 34.8883L45.1185 40.1698L46.3976 47.6273C46.473 48.0669 46.2923 48.5112 45.9314 48.7734C45.7273 48.9217 45.4855 48.9973 45.2425 48.9973C45.0559 48.9973 44.8687 48.9528 44.6973 48.8627L38 45.3416L31.3027 48.8626C30.9079 49.0702 30.4295 49.0356 30.0686 48.7734C29.7077 48.5112 29.527 48.0669 29.6024 47.6272L30.8815 40.1697L25.4633 34.8883C25.1439 34.577 25.0289 34.1112 25.1668 33.687C25.3046 33.2628 25.6713 32.9536 26.1127 32.8895L33.6005 31.8014L36.9491 25.0163C37.1466 24.6163 37.554 24.3631 38 24.3631C38.446 24.3631 38.8534 24.6164 39.0509 25.0163L42.3995 31.8014L49.8873 32.8895C50.3287 32.9536 50.6954 33.2628 50.8332 33.687C50.9711 34.1112 50.8562 34.577 50.5367 34.8883Z" fill="#FFBB00"/>
</g>
<defs>
<clipPath id="clip0_1_1653">
<rect width="40" height="40" fill="white" transform="translate(18 18)"/>
</clipPath>
</defs>
</svg>
