<svg width="75" height="75" viewBox="0 0 75 75" fill="none" xmlns="http://www.w3.org/2000/svg">
<circle cx="37.5" cy="37.5" r="36" stroke="#FFBB00" stroke-width="3"/>
<g clip-path="url(#clip0_1_2140)">
<g clip-path="url(#clip1_1_2140)">
<path d="M30.1437 49.4289C28.9603 49.4289 28.0009 48.4696 28.0009 47.2861V20.1442C28.0003 19.5406 27.7458 18.965 27.2995 18.5586C26.8514 18.1476 26.2486 17.9484 25.6439 18.0115C24.5209 18.1634 23.691 19.1342 23.7154 20.2671V53.0002C23.7154 53.3946 24.0351 53.7145 24.4296 53.7145H38.7312C38.6984 52.2814 38.7836 50.848 38.9862 49.4289H30.1437Z" fill="#FFBB00"/>
<path d="M52.1798 44.5391C51.8496 42.9169 51.262 41.3578 50.4391 39.9213C50.2527 39.5513 50.0649 39.1771 49.8792 38.7921C49.7321 38.4892 49.5821 38.1871 49.4285 37.8885V46.5718C49.4275 47.5544 48.9217 48.4676 48.0892 48.9896L48.0563 49.0096C47.6606 49.2519 47.2111 49.3925 46.7478 49.4189C46.689 49.4256 46.6298 49.429 46.5707 49.4289C45.9951 49.4297 45.4328 49.2552 44.9586 48.9289C44.3055 48.4777 43.8677 47.7767 43.7487 46.9919C43.7241 46.8533 43.7124 46.7126 43.7137 46.5719V39.4292C43.7137 38.6403 43.0741 38.0007 42.2851 38.0007C41.4962 38.0007 40.8566 38.6403 40.8566 39.4292V47.279C40.8567 47.3903 40.8307 47.5001 40.7809 47.5996C40.2404 49.8259 40.0387 52.1209 40.1823 54.4073C40.1823 54.4152 40.1866 54.4209 40.1866 54.4287C40.1866 54.4365 40.1866 54.4373 40.1866 54.4416C40.2525 55.6447 40.4457 56.8376 40.763 58H49.7348C50.3905 55.063 51.1111 51.9289 51.7347 49.309C51.8776 48.699 52.0297 48.0683 52.1347 47.4519C52.2245 46.949 52.2746 46.4398 52.2847 45.9291C52.2883 45.4636 52.2532 44.9986 52.1798 44.5391Z" fill="#FFBB00"/>
<path d="M42.287 36.5722C43.8649 36.5722 45.144 37.8514 45.144 39.4292V46.5719C45.1432 46.6339 45.1484 46.6958 45.1597 46.7569C45.1883 46.9933 45.2779 47.2183 45.4197 47.4097C45.5134 47.5439 45.6308 47.6598 45.7661 47.7518C46.0034 47.9146 46.2847 48.0013 46.5725 48.0004C46.6007 47.9954 46.6295 47.9932 46.6582 47.994C46.8881 47.9834 47.1117 47.9149 47.3081 47.7947L47.3352 47.7768C47.7505 47.5173 48.0022 47.0616 48.0009 46.5719V20.1442C48.0009 18.9609 47.0416 18.0014 45.8581 18.0014H28.7068C29.1737 18.6184 29.4276 19.3704 29.4304 20.1442V47.2861C29.4304 47.6806 29.7501 48.0004 30.1446 48.0004H39.2372C39.3086 47.6775 39.3722 47.4104 39.4286 47.2147V39.4293C39.4286 38.6713 39.7298 37.9444 40.2659 37.4086C40.802 36.8727 41.529 36.5718 42.287 36.5722ZM37.7929 42.077L34.9359 44.934C34.657 45.2128 34.2048 45.2128 33.9259 44.934L32.4973 43.5055C32.2267 43.2252 32.2306 42.7797 32.506 42.5042C32.7816 42.2287 33.227 42.2248 33.5073 42.4955L34.4302 43.4191L36.7822 41.0671C37.0624 40.7964 37.5079 40.8003 37.7835 41.0757C38.059 41.3513 38.0628 41.7967 37.7922 42.077H37.7929ZM37.7922 37.0772H37.7929L34.9359 39.9342C34.657 40.213 34.2048 40.213 33.9259 39.9342L32.4973 38.5057C32.2267 38.2254 32.2306 37.7799 32.506 37.5044C32.7816 37.2288 33.227 37.225 33.5073 37.4957L34.4302 38.4193L36.7822 36.0672C37.0624 35.7966 37.5079 35.8005 37.7835 36.0759C38.059 36.3515 38.0628 36.797 37.7922 37.0772ZM37.7922 32.0774H37.7929L34.9359 34.9344C34.657 35.2132 34.2048 35.2132 33.9259 34.9344L32.4973 33.5059C32.2267 33.2256 32.2306 32.7801 32.506 32.5046C32.7816 32.229 33.227 32.2252 33.5073 32.4959L34.4302 33.4195L36.7822 31.0674C37.0624 30.7967 37.5079 30.8006 37.7835 31.0761C38.059 31.3516 38.0628 31.7972 37.7922 32.0774ZM37.7922 27.0776H37.7929L34.9359 29.9346C34.657 30.2134 34.2048 30.2134 33.9259 29.9346L32.4973 28.506C32.2267 28.2258 32.2306 27.7803 32.506 27.5048C32.7816 27.2292 33.227 27.2254 33.5073 27.4961L34.4302 28.4196L36.7822 26.0676C37.0624 25.7969 37.5079 25.8008 37.7835 26.0763C38.059 26.3518 38.0628 26.7974 37.7922 27.0776ZM37.7922 22.0778H37.7929L34.9359 24.9348C34.657 25.2136 34.2048 25.2136 33.9259 24.9348L32.4973 23.5062C32.2267 23.226 32.2306 22.7805 32.506 22.5049C32.7816 22.2294 33.227 22.2256 33.5073 22.4963L34.4302 23.4198L36.7822 21.0678C36.9616 20.8821 37.2271 20.8077 37.4768 20.873C37.7265 20.9384 37.9215 21.1334 37.9869 21.3832C38.0523 21.6329 37.9778 21.8985 37.7922 22.0778ZM40.1443 22.2871H44.4298C44.8242 22.2871 45.1441 22.6068 45.1441 23.0013C45.1441 23.3958 44.8243 23.7156 44.4298 23.7156H40.1443C39.7498 23.7156 39.43 23.3958 39.43 23.0013C39.43 22.6068 39.7497 22.2871 40.1443 22.2871ZM40.1443 27.2869H44.4298C44.8242 27.2869 45.1441 27.6066 45.1441 28.0011C45.1441 28.3957 44.8243 28.7154 44.4298 28.7154H40.1443C39.7498 28.7154 39.43 28.3957 39.43 28.0011C39.43 27.6066 39.7497 27.2869 40.1443 27.2869ZM39.43 33.001C39.43 32.6065 39.7497 32.2867 40.1443 32.2867H44.4298C44.8242 32.2867 45.1441 32.6064 45.1441 33.001C45.1441 33.3955 44.8243 33.7152 44.4298 33.7152H40.1443C39.7497 33.7152 39.43 33.3954 39.43 33.001Z" fill="#FFBB00"/>
</g>
</g>
<defs>
<clipPath id="clip0_1_2140">
<rect width="40" height="40" fill="white" transform="translate(18 18)"/>
</clipPath>
<clipPath id="clip1_1_2140">
<rect width="40" height="40" fill="white" transform="translate(18 18)"/>
</clipPath>
</defs>
</svg>
