<svg width="75" height="75" viewBox="0 0 75 75" fill="none" xmlns="http://www.w3.org/2000/svg">
<circle cx="37.5" cy="37.5" r="36" stroke="#FFBB00" stroke-width="3"/>
<g clip-path="url(#clip0_1_6183)">
<path d="M42.7285 40.4583V23.25C42.7285 21.8576 42.178 20.5223 41.198 19.5377C40.2181 18.5531 38.889 18 37.5032 18C36.1174 18 34.7883 18.5531 33.8084 19.5377C32.8285 20.5223 32.278 21.8576 32.278 23.25V40.4583C30.6053 41.5668 29.3232 43.177 28.6142 45.06C27.9052 46.9429 27.8053 49.0026 28.3289 50.9459C28.8524 52.8891 29.9727 54.617 31.5302 55.8835C33.0877 57.15 35.0032 57.8906 37.0039 58H37.5015C39.5457 57.9951 41.534 57.3291 43.1721 56.1006C44.8103 54.8721 46.0113 53.1463 46.5974 51.1787C47.1835 49.2111 47.1236 47.1062 46.4265 45.1754C45.7294 43.2447 44.4322 41.5907 42.7268 40.4583H42.7285ZM41.1526 49.7083C40.8987 50.4741 40.4074 51.1381 39.7507 51.6029C39.094 52.0678 38.3064 52.3092 37.5032 52.2917C36.5903 52.2908 35.7072 51.9647 35.0111 51.3711C34.3151 50.7776 33.8511 49.9552 33.7018 49.0503C33.5525 48.1454 33.7276 47.2166 34.1959 46.4291C34.6641 45.6417 35.3952 45.0467 36.2591 44.75V30.25C36.2591 29.9185 36.3902 29.6005 36.6235 29.3661C36.8568 29.1317 37.1733 29 37.5032 29C37.8332 29 38.1496 29.1317 38.3829 29.3661C38.6162 29.6005 38.7473 29.9185 38.7473 30.25V44.7917C39.2296 44.9513 39.6753 45.2061 40.0583 45.5411C40.4412 45.8761 40.7538 46.2845 40.9777 46.7424C41.2015 47.2003 41.3322 47.6985 41.3619 48.2078C41.3917 48.7171 41.3199 49.2272 41.1509 49.7083H41.1526Z" fill="#FFBB00"/>
</g>
<defs>
<clipPath id="clip0_1_6183">
<rect width="19" height="40" fill="white" transform="translate(28 18)"/>
</clipPath>
</defs>
</svg>
