<svg width="75" height="75" viewBox="0 0 75 75" fill="none" xmlns="http://www.w3.org/2000/svg">
<circle cx="37.5" cy="37.5" r="36" stroke="#FFBB00" stroke-width="3"/>
<g clip-path="url(#clip0_1_6144)">
<g clip-path="url(#clip1_1_6144)">
<path d="M18.6963 27.5964H27.5163V18.6971L18.6963 27.5964Z" fill="#FFBB00"/>
<path d="M48.404 38.887C45.8797 38.9025 43.464 39.9162 41.6845 41.7068C39.905 43.4973 38.9062 45.9191 38.9062 48.4435C38.9062 50.9679 39.905 53.3897 41.6845 55.1803C43.464 56.9708 45.8797 57.9845 48.404 58C49.664 58.0078 50.913 57.7664 52.0793 57.2896C53.2456 56.8128 54.3061 56.1101 55.1997 55.2219C56.0934 54.3338 56.8026 53.2776 57.2866 52.1143C57.7706 50.951 58.0197 49.7035 58.0197 48.4435C58.0197 47.1835 57.7706 45.936 57.2866 44.7727C56.8026 43.6094 56.0934 42.5532 55.1997 41.6651C54.3061 40.7769 53.2456 40.0742 52.0793 39.5974C50.913 39.1206 49.664 38.8792 48.404 38.887ZM52.8142 48.0553L48.0553 52.8142C47.9449 52.9247 47.8137 53.0123 47.6694 53.0721C47.5251 53.1319 47.3704 53.1626 47.2142 53.1626C47.058 53.1626 46.9033 53.1319 46.759 53.0721C46.6147 53.0123 46.4836 52.9247 46.3731 52.8142L43.9939 50.435C43.7708 50.2119 43.6455 49.9093 43.6455 49.5939C43.6455 49.2784 43.7708 48.9759 43.9939 48.7528C44.2169 48.5297 44.5195 48.4044 44.8349 48.4044C45.1504 48.4044 45.453 48.5297 45.676 48.7528L47.2142 50.291L51.1317 46.3735C51.2421 46.2631 51.3733 46.1754 51.5176 46.1157C51.6619 46.0559 51.8165 46.0251 51.9728 46.0251C52.129 46.0251 52.2836 46.0559 52.428 46.1157C52.5723 46.1754 52.7034 46.2631 52.8139 46.3735C52.9243 46.484 53.0119 46.6151 53.0717 46.7594C53.1315 46.9037 53.1622 47.0584 53.1622 47.2146C53.1622 47.3708 53.1315 47.5255 53.0717 47.6698C53.0119 47.8141 52.9243 47.9452 52.8139 48.0557L52.8142 48.0553Z" fill="#FFBB00"/>
<path d="M23.832 43.8593H37.7288C38.6312 41.7759 40.1218 40.001 42.0179 38.7521C43.914 37.5032 46.1332 36.8345 48.4037 36.828V21.5156C48.4048 20.5858 48.0371 19.6934 47.3812 19.0343C46.7252 18.3753 45.8346 18.0033 44.9048 18H29.664V28.6251C29.6645 28.7787 29.6347 28.9308 29.5763 29.0729C29.5179 29.215 29.4321 29.3441 29.3238 29.453C29.2154 29.5618 29.0867 29.6482 28.9449 29.7073C28.8031 29.7663 28.6511 29.7969 28.4975 29.7971H18V54.4065C17.9961 55.3446 18.3605 56.2467 19.015 56.9187C19.6694 57.5908 20.5615 57.979 21.4993 58H41.4775C39.1607 56.2579 37.5598 53.7298 36.9757 50.8905H23.832C23.5248 50.8851 23.232 50.7593 23.0167 50.5401C22.8013 50.321 22.6807 50.026 22.6807 49.7187C22.6807 49.4115 22.8013 49.1165 23.0167 48.8973C23.232 48.6782 23.5248 48.5523 23.832 48.5469H36.7411C36.7411 47.7598 36.8201 46.9746 36.9768 46.2033H23.832C23.5248 46.1979 23.232 46.072 23.0167 45.8529C22.8013 45.6337 22.6807 45.3387 22.6807 45.0315C22.6807 44.7242 22.8013 44.4292 23.0167 44.2101C23.232 43.9909 23.5248 43.865 23.832 43.8596V43.8593ZM33.1637 25.1095H42.5717C42.8789 25.1149 43.1717 25.2407 43.387 25.4599C43.6024 25.679 43.723 25.974 43.723 26.2813C43.723 26.5885 43.6024 26.8835 43.387 27.1027C43.1717 27.3218 42.8789 27.4477 42.5717 27.4531H33.1637C32.8565 27.4477 32.5637 27.3218 32.3483 27.1027C32.133 26.8835 32.0123 26.5885 32.0123 26.2813C32.0123 25.974 32.133 25.679 32.3483 25.4599C32.5637 25.2407 32.8565 25.1149 33.1637 25.1095ZM33.1637 29.7971H42.5717C42.8789 29.8025 43.1717 29.9283 43.387 30.1475C43.6024 30.3667 43.723 30.6617 43.723 30.9689C43.723 31.2762 43.6024 31.5711 43.387 31.7903C43.1717 32.0095 42.8789 32.1353 42.5717 32.1407H33.1637C32.8565 32.1353 32.5637 32.0095 32.3483 31.7903C32.133 31.5711 32.0123 31.2762 32.0123 30.9689C32.0123 30.6617 32.133 30.3667 32.3483 30.1475C32.5637 29.9283 32.8565 29.8025 33.1637 29.7971ZM23.832 34.4844H42.5717C42.8789 34.4898 43.1717 34.6156 43.387 34.8348C43.6024 35.054 43.723 35.3489 43.723 35.6562C43.723 35.9634 43.6024 36.2584 43.387 36.4776C43.1717 36.6968 42.8789 36.8226 42.5717 36.828H23.832C23.5248 36.8226 23.232 36.6968 23.0167 36.4776C22.8013 36.2584 22.6807 35.9634 22.6807 35.6562C22.6807 35.3489 22.8013 35.054 23.0167 34.8348C23.232 34.6156 23.5248 34.4898 23.832 34.4844ZM23.832 39.172H38.3437C38.6509 39.1774 38.9437 39.3033 39.159 39.5224C39.3744 39.7416 39.495 40.0366 39.495 40.3438C39.495 40.6511 39.3744 40.946 39.159 41.1652C38.9437 41.3844 38.6509 41.5102 38.3437 41.5156H23.832C23.5248 41.5102 23.232 41.3844 23.0167 41.1652C22.8013 40.946 22.6807 40.6511 22.6807 40.3438C22.6807 40.0366 22.8013 39.7416 23.0167 39.5224C23.232 39.3033 23.5248 39.1774 23.832 39.172Z" fill="#FFBB00"/>
</g>
</g>
<defs>
<clipPath id="clip0_1_6144">
<rect width="40" height="40" fill="white" transform="translate(18 18)"/>
</clipPath>
<clipPath id="clip1_1_6144">
<rect width="40" height="40" fill="white" transform="translate(18 18)"/>
</clipPath>
</defs>
</svg>
