<svg width="75" height="75" viewBox="0 0 75 75" fill="none" xmlns="http://www.w3.org/2000/svg">
<circle cx="37.5" cy="37.5" r="36" stroke="#FFBB00" stroke-width="3"/>
<g clip-path="url(#clip0_1_6176)">
<path d="M55.0824 31H54.6807V30.5832C54.6872 29.3758 54.2081 28.2151 53.3485 27.3559C52.4888 26.4967 51.3189 26.009 50.0954 26H22.5851C21.3616 26.0091 20.1918 26.4968 19.3322 27.356C18.4727 28.2152 17.9936 29.3759 18.0001 30.5832V46.4168C17.9936 47.6241 18.4727 48.7848 19.3322 49.644C20.1918 50.5032 21.3616 50.9909 22.5851 51H50.0954C51.3189 50.9909 52.4887 50.5032 53.3482 49.644C54.2078 48.7848 54.6869 47.6241 54.6804 46.4168V46H55.0821C55.8607 45.9943 56.6052 45.6839 57.1523 45.1371C57.6994 44.5903 58.0042 43.8516 58.0001 43.0832V33.9168C58.0042 33.1484 57.6994 32.4098 57.1524 31.863C56.6054 31.3162 55.861 31.0058 55.0824 31ZM41.2037 37.2829L35.3751 46.4484C35.3008 46.566 35.1973 46.6631 35.0745 46.7304C34.9517 46.7977 34.8136 46.8331 34.6731 46.8332C34.5537 46.8335 34.4357 46.8084 34.327 46.7597C34.2183 46.7111 34.1215 46.6399 34.0431 46.5511C33.9647 46.4623 33.9065 46.358 33.8725 46.2451C33.8385 46.1321 33.8295 46.0134 33.8461 45.8967L34.5631 40.1668L32.1654 40.1635C32.0117 40.1633 31.8611 40.1209 31.7304 40.0412C31.5997 39.9614 31.494 39.8474 31.4251 39.7118C31.3552 39.5752 31.3242 39.4225 31.3354 39.2698C31.3466 39.1172 31.3994 38.9704 31.4884 38.8451L37.4507 30.5135C37.5598 30.3617 37.7177 30.2509 37.8988 30.1992C38.0799 30.1474 38.2734 30.1578 38.4477 30.2286C38.6224 30.3019 38.7671 30.4309 38.8587 30.595C38.9504 30.759 38.9836 30.9487 38.9531 31.1336L38.1544 36L40.5021 36.0033C40.6522 36.0038 40.7994 36.0443 40.9282 36.1206C41.0569 36.1968 41.1624 36.306 41.2334 36.4365C41.3048 36.5676 41.3399 36.7149 41.3349 36.8636C41.3299 37.0124 41.2851 37.1571 41.2051 37.2832L41.2037 37.2829Z" fill="#FFBB00"/>
</g>
<defs>
<clipPath id="clip0_1_6176">
<rect width="40" height="25" fill="white" transform="translate(18 26)"/>
</clipPath>
</defs>
</svg>
