<svg width="75" height="75" viewBox="0 0 75 75" fill="none" xmlns="http://www.w3.org/2000/svg">
<circle cx="37.5" cy="37.5" r="36" stroke="#FFBB00" stroke-width="3"/>
<g clip-path="url(#clip0_1_6132)">
<path d="M50.9018 29.2538C50.5451 26.4065 49.23 23.7591 47.1668 21.7347C45.1035 19.7104 42.4111 18.4259 39.5198 18.0865C39.0071 18.029 38.4916 18.0001 37.9757 18C35.4049 17.9995 32.892 18.7515 30.7558 20.1607C28.6197 21.5698 26.9565 23.5726 25.9776 25.9147C24.9986 28.2568 24.7479 30.8326 25.2572 33.3154C25.7666 35.7981 27.0131 38.0758 28.8386 39.8593C29.8213 40.7846 30.6067 41.894 31.1486 43.1224C31.6905 44.3508 31.9781 45.6734 31.9944 47.0127V48.4902H43.9927V47.0062C43.9974 45.6923 44.2692 44.3926 44.7919 43.1839C45.3146 41.9751 46.0778 40.8818 47.0363 39.9684C48.4791 38.5999 49.5793 36.9198 50.2501 35.0606C50.9209 33.2014 51.1439 31.214 50.9015 29.2553L50.9018 29.2538Z" fill="#FFBB00"/>
<path d="M37.9934 58C38.617 57.9992 39.2251 57.8084 39.7343 57.4536C40.2434 57.0989 40.6287 56.5976 40.8373 56.0185H35.1494C35.3579 56.5976 35.7432 57.0989 36.2524 57.4537C36.7616 57.8085 37.3697 57.9993 37.9934 58Z" fill="#FFBB00"/>
<path d="M32.9678 53.0468C32.9682 53.3094 33.0742 53.5611 33.2627 53.7468C33.4511 53.9325 33.7066 54.037 33.9731 54.0374H42.0148C42.2813 54.037 42.5368 53.9325 42.7252 53.7468C42.9137 53.5611 43.0197 53.3094 43.0201 53.0468V50.0748H32.9678V53.0468Z" fill="#FFBB00"/>
</g>
<defs>
<clipPath id="clip0_1_6132">
<rect width="26" height="40" fill="white" transform="translate(25 18)"/>
</clipPath>
</defs>
</svg>
