<svg width="75" height="75" viewBox="0 0 75 75" fill="none" xmlns="http://www.w3.org/2000/svg">
<circle cx="37.5" cy="37.5" r="36" stroke="#FFBB00" stroke-width="3"/>
<g clip-path="url(#clip0_1_6125)">
<path d="M52.8703 34.2156C52.7535 33.9504 52.5632 33.7251 52.3225 33.567C52.0817 33.4089 51.8009 33.3247 51.5139 33.3247H40.3413L44.9374 21.0338C45.0224 20.8064 45.0515 20.5615 45.0224 20.3202C44.9932 20.0789 44.9066 19.8483 44.77 19.6483C44.6334 19.4483 44.4509 19.2849 44.2381 19.1719C44.0253 19.059 43.7886 19 43.5483 19H32.4918C32.1905 19.0004 31.8965 19.0935 31.6487 19.2669C31.4009 19.4403 31.2111 19.6858 31.1045 19.9709L24.0967 38.7091C24.0113 38.9366 23.9818 39.1818 24.0108 39.4234C24.0397 39.665 24.1263 39.8959 24.2629 40.0962C24.3996 40.2966 24.5822 40.4603 24.7953 40.5734C25.0083 40.6865 25.2453 40.7455 25.4858 40.7455L37.8855 40.6702L31.3345 58.3C31.2925 58.413 31.2909 58.5372 31.3298 58.6513C31.3688 58.7654 31.4459 58.8621 31.5479 58.9248C31.6498 58.9874 31.7702 59.0121 31.8882 58.9945C32.0062 58.9769 32.1145 58.9181 32.1942 58.8284L52.6187 35.832C52.8105 35.6159 52.9363 35.3483 52.9809 35.0615C53.0256 34.7746 52.9871 34.4809 52.8703 34.2156Z" fill="#FFBB00"/>
</g>
<defs>
<clipPath id="clip0_1_6125">
<rect width="29" height="40" fill="white" transform="translate(24 19)"/>
</clipPath>
</defs>
</svg>
