<svg width="75" height="75" viewBox="0 0 75 75" fill="none" xmlns="http://www.w3.org/2000/svg">
<circle cx="37.5" cy="37.5" r="36" stroke="#FFBB00" stroke-width="3"/>
<g clip-path="url(#clip0_1_6091)">
<path d="M57.9296 24.0357C57.8988 23.8202 57.8086 23.6176 57.6692 23.4504C57.5298 23.2833 57.3465 23.1583 57.1401 23.0894C56.9336 23.0205 56.712 23.0105 56.5002 23.0604C56.2883 23.1103 56.0945 23.2182 55.9405 23.372L54.2834 25.0302C53.8369 25.4567 53.2432 25.6946 52.6258 25.6946C52.0083 25.6946 51.4147 25.4567 50.9681 25.0302C50.7503 24.8127 50.5775 24.5544 50.4595 24.2701C50.3416 23.9858 50.2809 23.681 50.2809 23.3731C50.2809 23.0653 50.3416 22.7605 50.4595 22.4762C50.5775 22.1918 50.7503 21.9335 50.9681 21.716L52.6252 20.059C52.7793 19.905 52.8874 19.7112 52.9374 19.4993C52.9875 19.2873 52.9775 19.0656 52.9087 18.859C52.8398 18.6524 52.7147 18.4691 52.5475 18.3296C52.3803 18.1901 52.1776 18.0999 51.962 18.0691C50.8108 17.9047 49.6367 18.0283 48.545 18.429C47.4534 18.8297 46.4781 19.4949 45.7066 20.365C44.9351 21.2351 44.3915 22.283 44.1244 23.4148C43.8573 24.5466 43.8751 25.727 44.1761 26.8502L26.8496 44.176C25.7262 43.8754 24.5459 43.8579 23.4141 44.1252C22.2823 44.3925 21.2345 44.9362 20.3644 45.7077C19.4943 46.4792 18.829 47.4545 18.4282 48.5461C18.0273 49.6377 17.9034 50.8117 18.0674 51.963C18.0982 52.1784 18.1884 52.3811 18.3278 52.5482C18.4673 52.7153 18.6505 52.8403 18.857 52.9092C19.0634 52.9781 19.285 52.9882 19.4969 52.9382C19.7087 52.8883 19.9025 52.7804 20.0565 52.6266L21.7136 50.9684C22.1601 50.542 22.7538 50.304 23.3712 50.304C23.9887 50.304 24.5824 50.542 25.0289 50.9684C25.2467 51.1859 25.4196 51.4442 25.5375 51.7285C25.6554 52.0129 25.7161 52.3177 25.7161 52.6255C25.7161 52.9333 25.6554 53.2381 25.5375 53.5225C25.4196 53.8068 25.2467 54.0651 25.0289 54.2826L23.3718 55.9397C23.218 56.0937 23.11 56.2875 23.0601 56.4993C23.0102 56.7112 23.0203 56.9328 23.0891 57.1392C23.158 57.3457 23.283 57.5289 23.4502 57.6684C23.6173 57.8078 23.8199 57.898 24.0354 57.9288C25.1866 58.0932 26.3606 57.9694 27.4522 57.5687C28.5438 57.168 29.5191 56.5029 30.2905 55.6327C31.062 54.7626 31.6056 53.7148 31.8727 52.583C32.1397 51.4512 32.1219 50.2709 31.8209 49.1477L49.1474 31.8215C50.2707 32.1221 51.4509 32.1396 52.5826 31.8724C53.7143 31.6051 54.762 31.0615 55.6321 30.2901C56.5022 29.5187 57.1675 28.5437 57.5684 27.4522C57.9694 26.3607 58.0935 25.1869 57.9296 24.0357Z" fill="#FFBB00"/>
<path d="M50.9671 43.9346C50.3592 43.9423 49.755 44.0301 49.17 44.1957L44.6271 39.6531L39.6533 44.6266L44.1948 49.1691C44.0293 49.7545 43.9415 50.3591 43.9337 50.9673C43.9337 52.3583 44.3461 53.718 45.1189 54.8745C45.8917 56.031 46.99 56.9324 48.2751 57.4647C49.5602 57.997 50.9742 58.1363 52.3384 57.8649C53.7026 57.5935 54.9558 56.9237 55.9393 55.9402C56.9228 54.9567 57.5926 53.7035 57.864 52.3393C58.1354 50.9751 57.9961 49.5611 57.4638 48.276C56.9315 46.9909 56.0301 45.8926 54.8736 45.1198C53.7171 44.347 52.3574 43.9346 50.9664 43.9346H50.9671ZM54.813 50.7328L54.1159 53.3335C54.0624 53.5321 53.9577 53.7132 53.8123 53.8586C53.6668 54.0041 53.4857 54.1087 53.2871 54.1622L50.6864 54.8593C50.4877 54.9127 50.2785 54.9127 50.0797 54.8595C49.881 54.8063 49.6998 54.7016 49.5544 54.556L47.6508 52.6524C47.5052 52.507 47.4005 52.3258 47.3473 52.1271C47.294 51.9284 47.2941 51.7191 47.3475 51.5204L48.0446 48.9197C48.0981 48.7211 48.2028 48.54 48.3482 48.3946C48.4936 48.2491 48.6747 48.1444 48.8733 48.0909L51.474 47.3939C51.6727 47.3397 51.8821 47.3393 52.081 47.3926C52.2799 47.4459 52.4611 47.551 52.606 47.6971L54.5097 49.6008C54.6552 49.7462 54.7599 49.9274 54.8131 50.1261C54.8664 50.3248 54.8663 50.5341 54.813 50.7328Z" fill="#FFBB00"/>
<path d="M31.8221 26.7862C32.1389 25.5932 32.1375 24.3381 31.818 23.1459C31.4984 21.9537 30.872 20.8662 30.001 19.9916C28.661 18.7132 26.8801 17.9999 25.0281 17.9999C23.1761 17.9999 21.3952 18.7132 20.0552 19.9916C18.9607 21.0866 18.258 22.5121 18.0562 24.047C17.8543 25.582 18.1645 27.1407 18.9387 28.4815C19.7128 29.8222 20.9077 30.87 22.3381 31.4625C23.7684 32.055 25.3542 32.1591 26.8497 31.7585L31.3726 36.3462L36.3457 31.3734L31.8221 26.7862ZM28.7566 24.6123L28.0595 27.2131C28.0061 27.4117 27.9014 27.5927 27.7559 27.7382C27.6105 27.8836 27.4294 27.9883 27.2308 28.0418L24.6301 28.7389C24.4314 28.7922 24.2221 28.7923 24.0234 28.7391C23.8247 28.6858 23.6435 28.5812 23.4981 28.4356L21.5948 26.532C21.4493 26.3866 21.3446 26.2054 21.2914 26.0066C21.2381 25.8079 21.2382 25.5987 21.2915 25.4L21.9886 22.8C22.0421 22.6014 22.1468 22.4203 22.2922 22.2749C22.4377 22.1294 22.6188 22.0247 22.8174 21.9712L25.417 21.2727C25.6157 21.219 25.825 21.2188 26.0238 21.2721C26.2226 21.3253 26.4038 21.4302 26.549 21.576L28.4526 23.4796C28.5985 23.625 28.7034 23.8064 28.7568 24.0053C28.8102 24.2043 28.8101 24.4138 28.7566 24.6127V24.6123Z" fill="#FFBB00"/>
</g>
<defs>
<clipPath id="clip0_1_6091">
<rect width="40" height="40" fill="white" transform="translate(18 18)"/>
</clipPath>
</defs>
</svg>
