<svg width="75" height="75" viewBox="0 0 75 75" fill="none" xmlns="http://www.w3.org/2000/svg">
<circle cx="37.5" cy="37.5" r="36" stroke="#FFBB00" stroke-width="3"/>
<g clip-path="url(#clip0_1_6159)">
<path d="M37.9999 26C30.3576 26 23.4269 30.2087 18.3129 37.0446C18.1097 37.3196 18 37.6531 18 37.9958C18 38.3385 18.1097 38.672 18.3129 38.947C23.4269 45.7916 30.3576 50 37.9999 50C45.6423 50 52.5729 45.7913 57.6869 38.9554C57.8901 38.6804 57.9999 38.3469 57.9999 38.0042C57.9999 37.6615 57.8901 37.328 57.6869 37.053C52.5729 30.2087 45.6423 26 37.9999 26ZM38.5483 46.4502C36.8412 46.5624 35.1408 46.1481 33.6736 45.2626C32.2065 44.3771 31.0424 43.0624 30.3366 41.4939C29.6308 39.9254 29.4168 38.1776 29.7231 36.4836C30.0295 34.7895 30.8416 33.2297 32.0513 32.0121C33.2609 30.7946 34.8105 29.9771 36.4936 29.6688C38.1766 29.3604 39.913 29.5758 41.4713 30.2863C43.0296 30.9967 44.3357 32.1684 45.2154 33.6452C46.0951 35.1219 46.5067 36.8335 46.3953 38.5518C46.2612 40.6022 45.3914 42.5338 43.9479 43.9869C42.5043 45.44 40.5854 46.3155 38.5483 46.4505V46.4502ZM38.2946 42.5461C37.3758 42.6055 36.4608 42.3817 35.6715 41.9044C34.8823 41.4272 34.2562 40.7192 33.8768 39.8748C33.4974 39.0304 33.3826 38.0896 33.5477 37.1779C33.7129 36.2662 34.1501 35.4268 34.8012 34.7715C35.4523 34.1162 36.2863 33.6761 37.1921 33.51C38.0979 33.3438 39.0325 33.4594 39.8714 33.8414C40.7102 34.2234 41.4136 34.8536 41.8876 35.648C42.3617 36.4425 42.584 37.3635 42.5249 38.2884C42.4559 39.3949 41.988 40.4381 41.2092 41.2221C40.4303 42.006 39.3939 42.477 38.2946 42.5464V42.5461Z" fill="#FFBB00"/>
</g>
<defs>
<clipPath id="clip0_1_6159">
<rect width="40" height="24" fill="white" transform="translate(18 26)"/>
</clipPath>
</defs>
</svg>
