<svg width="75" height="75" viewBox="0 0 75 75" fill="none" xmlns="http://www.w3.org/2000/svg">
<circle cx="37.5" cy="37.5" r="36" stroke="#FFBB00" stroke-width="3"/>
<g clip-path="url(#clip0_1_6106)">
<path d="M46.1812 20.3761C46.1735 19.7511 45.9211 19.1543 45.4787 18.715C45.0363 18.2758 44.4395 18.0295 43.8176 18.0295C43.1958 18.0295 42.599 18.2758 42.1566 18.715C41.7142 19.1543 41.4618 19.7511 41.4541 20.3761V24.0048H46.1812V20.3761Z" fill="#FFBB00"/>
<path d="M34.5446 20.376C34.5485 20.0616 34.4902 19.7495 34.3732 19.4578C34.2562 19.1661 34.0827 18.9007 33.8628 18.677C33.643 18.4532 33.3811 18.2756 33.0924 18.1543C32.8037 18.0331 32.494 17.9706 32.1811 17.9706C31.8682 17.9706 31.5585 18.0331 31.2698 18.1543C30.9811 18.2756 30.7193 18.4532 30.4994 18.677C30.2795 18.9007 30.1061 19.1661 29.989 19.4578C29.872 19.7495 29.8137 20.0616 29.8176 20.376V24.0048H34.5446V20.376Z" fill="#FFBB00"/>
<path d="M52 33.3785V28.6269H46.1674V26.2491H41.5007V28.6269H34.5V26.2491H29.8333V28.6269H24V33.3785H52Z" fill="#FFBB00"/>
<path d="M26.3633 35.3665V38.9302C26.3549 41.4421 27.1388 43.8921 28.6025 45.9282C30.0661 47.9643 32.1341 49.4816 34.5094 50.2621V56.9996C34.5094 57.5519 34.9571 57.9996 35.5094 57.9996H40.4913C41.0436 57.9996 41.4913 57.5519 41.4913 56.9996V50.2625C43.8666 49.4819 45.9346 47.9646 47.3983 45.9286C48.8619 43.8925 49.6458 41.4425 49.6374 38.9305V35.3669L26.3633 35.3665Z" fill="#FFBB00"/>
</g>
<defs>
<clipPath id="clip0_1_6106">
<rect width="28" height="40" fill="white" transform="translate(24 18)"/>
</clipPath>
</defs>
</svg>
