<svg width="75" height="75" viewBox="0 0 75 75" fill="none" xmlns="http://www.w3.org/2000/svg">
<circle cx="37.5" cy="37.5" r="36" stroke="#FFBB00" stroke-width="3"/>
<g clip-path="url(#clip0_1_6166)">
<path d="M51.5775 36.5098H24.5039C23.4188 36.5098 22.3781 36.0888 21.6108 35.3394C20.8436 34.5899 20.4125 33.5735 20.4125 32.5136C20.4125 31.4538 20.8436 30.4373 21.6108 29.6879C22.3781 28.9385 23.4188 28.5175 24.5039 28.5175H41.7939C41.6317 27.7602 41.6317 26.9784 41.7939 26.2211H24.5039C22.7952 26.2211 21.1566 26.8841 19.9484 28.0642C18.7403 29.2442 18.0615 30.8448 18.0615 32.5136C18.0615 34.1825 18.7403 35.783 19.9484 36.9631C21.1566 38.1432 22.7952 38.8062 24.5039 38.8062H51.5789C52.6618 38.8091 53.6994 39.2315 54.464 39.9806C55.2285 40.7298 55.6576 41.7446 55.6572 42.8023V43.3441C55.6576 44.4019 55.2285 45.4167 54.464 46.1658C53.6994 46.915 52.6618 47.3374 51.5789 47.3403H34.1635C34.3474 48.0932 34.3681 48.8754 34.2242 49.6366H51.5775C53.2828 49.632 54.9167 48.967 56.1206 47.7873C57.3245 46.6077 58.0002 45.0098 57.9995 43.3441V42.8023C58.0002 41.1367 57.3245 39.5388 56.1206 38.3591C54.9167 37.1795 53.2828 36.5144 51.5775 36.5098Z" fill="#FFBB00"/>
<path d="M21.363 52H28.6553C29.1124 52.0062 29.5662 51.9236 29.9904 51.7571C30.4145 51.5905 30.8005 51.3433 31.126 51.0297C31.4515 50.7162 31.71 50.3426 31.8864 49.9307C32.0628 49.5188 32.1536 49.0767 32.1536 48.6302C32.1536 48.1837 32.0628 47.7417 31.8864 47.3297C31.71 46.9178 31.4515 46.5442 31.126 46.2307C30.8005 45.9172 30.4145 45.6699 29.9904 45.5034C29.5662 45.3368 29.1124 45.2543 28.6553 45.2605H21.363V47.6281H18V49.9238H21.363V52Z" fill="#FFBB00"/>
<path d="M54.6259 24H47.3333C46.8762 23.9938 46.4224 24.0764 45.9982 24.243C45.5741 24.4095 45.188 24.6567 44.8626 24.9703C44.5371 25.2838 44.2786 25.6574 44.1022 26.0693C43.9258 26.4812 43.835 26.9233 43.835 27.3698C43.835 27.8163 43.9258 28.2584 44.1022 28.6703C44.2786 29.0822 44.5371 29.4558 44.8626 29.7693C45.188 30.0828 45.5741 30.3301 45.9982 30.4966C46.4224 30.6632 46.8762 30.7458 47.3333 30.7396H54.6259V28.3726H57.9889V26.075H54.6259V24Z" fill="#FFBB00"/>
</g>
<defs>
<clipPath id="clip0_1_6166">
<rect width="40" height="28" fill="white" transform="translate(18 24)"/>
</clipPath>
</defs>
</svg>
