<svg width="75" height="75" viewBox="0 0 75 75" fill="none" xmlns="http://www.w3.org/2000/svg">
<circle cx="37.5" cy="37.5" r="36" stroke="#FFBB00" stroke-width="3"/>
<g clip-path="url(#clip0_1_6117)">
<g clip-path="url(#clip1_1_6117)">
<path d="M54.406 33.0359H53.5522C53.2747 32.1677 52.9246 31.3243 52.5057 30.5148L53.1104 29.9101C53.4543 29.5663 53.7271 29.1581 53.9132 28.7089C54.0993 28.2597 54.1951 27.7782 54.1951 27.2919C54.1951 26.8056 54.0993 26.3242 53.9132 25.8749C53.7271 25.4257 53.4543 25.0175 53.1104 24.6737L51.3264 22.8901C50.9826 22.5462 50.5744 22.2734 50.1252 22.0873C49.676 21.9012 49.1945 21.8054 48.7082 21.8054C48.2219 21.8054 47.7405 21.9012 47.2912 22.0873C46.842 22.2734 46.4338 22.5462 46.09 22.8901L45.4849 23.4952C44.6754 23.0762 43.8321 22.7262 42.9638 22.4486V21.5945C42.9628 20.613 42.5725 19.6721 41.8786 18.978C41.1847 18.284 40.2438 17.8935 39.2624 17.8923H36.7384C35.7568 17.8933 34.8158 18.2837 34.1217 18.9778C33.4277 19.6719 33.0373 20.6129 33.0362 21.5945V22.4483C32.168 22.7257 31.3246 23.0758 30.5151 23.4948L29.9108 22.8901C29.567 22.5462 29.1588 22.2733 28.7096 22.0872C28.2604 21.9011 27.7788 21.8053 27.2926 21.8053C26.8063 21.8053 26.3248 21.9011 25.8756 22.0872C25.4263 22.2733 25.0182 22.5462 24.6744 22.8901L22.8904 24.6741C22.5465 25.0179 22.2737 25.4261 22.0876 25.8753C21.9015 26.3245 21.8057 26.806 21.8057 27.2923C21.8057 27.7785 21.9015 28.26 22.0876 28.7093C22.2737 29.1585 22.5465 29.5667 22.8904 29.9105L23.4955 30.5155C23.0765 31.325 22.7264 32.1684 22.4489 33.0366H21.5948C20.6133 33.0377 19.6724 33.428 18.9783 34.1219C18.2843 34.8158 17.8938 35.7567 17.8926 36.7381V39.2621C17.8937 40.2436 18.2842 41.1846 18.9782 41.8787C19.6722 42.5727 20.6132 42.9631 21.5948 42.9643H22.4486C22.7261 43.8325 23.0761 44.6759 23.4951 45.4854L22.8904 46.0901C22.5465 46.4339 22.2737 46.8421 22.0876 47.2913C21.9015 47.7405 21.8057 48.222 21.8057 48.7083C21.8057 49.1945 21.9015 49.676 22.0876 50.1253C22.2737 50.5745 22.5465 50.9827 22.8904 51.3265L24.6744 53.1101C25.0182 53.454 25.4264 53.7268 25.8756 53.9129C26.3248 54.099 26.8063 54.1948 27.2926 54.1948C27.7788 54.1948 28.2603 54.099 28.7096 53.9129C29.1588 53.7268 29.567 53.454 29.9108 53.1101L30.5158 52.505C31.3254 52.9239 32.1687 53.274 33.0369 53.5515V54.4054C33.0381 55.3869 33.4285 56.3279 34.1226 57.0219C34.8166 57.716 35.7576 58.1064 36.7391 58.1075H39.2631C40.2446 58.1064 41.1856 57.716 41.8797 57.0219C42.5737 56.3279 42.9641 55.3869 42.9653 54.4054V53.5519C43.8336 53.2744 44.6769 52.9244 45.4864 52.5054L46.0911 53.1101C46.4349 53.454 46.843 53.7268 47.2923 53.913C47.7415 54.0991 48.223 54.1949 48.7093 54.1949C49.1956 54.1949 49.6771 54.0991 50.1263 53.913C50.5756 53.7268 50.9837 53.454 51.3275 53.1101L53.1115 51.3261C53.4554 50.9823 53.7281 50.5741 53.9143 50.1249C54.1004 49.6757 54.1962 49.1942 54.1962 48.7079C54.1962 48.2216 54.1004 47.7402 53.9143 47.2909C53.7281 46.8417 53.4554 46.4335 53.1115 46.0897L52.5057 45.485C52.9247 44.6755 53.2747 43.8322 53.5522 42.9639H54.406C55.3876 42.9628 56.3285 42.5723 57.0226 41.8783C57.7166 41.1842 58.1071 40.2433 58.1082 39.2617V36.7377C58.107 35.7563 57.7165 34.8154 57.0225 34.1214C56.3284 33.4274 55.3875 33.0371 54.406 33.0359ZM38.0017 46.7501C36.2709 46.7504 34.579 46.2374 33.1398 45.276C31.7006 44.3147 30.5788 42.9481 29.9164 41.3491C29.2539 39.7502 29.0805 37.9907 29.4181 36.2932C29.7557 34.5957 30.5891 33.0364 31.8129 31.8126C33.0367 30.5888 34.596 29.7554 36.2935 29.4178C37.991 29.0802 39.7505 29.2536 41.3494 29.9161C42.9484 30.5785 44.315 31.7003 45.2763 33.1395C46.2377 34.5787 46.7507 36.2706 46.7504 38.0014C46.7474 40.3208 45.8247 42.5443 44.1847 44.1844C42.5446 45.8244 40.3211 46.7471 38.0017 46.7501Z" fill="#FFBB00"/>
</g>
</g>
<defs>
<clipPath id="clip0_1_6117">
<rect width="40" height="40" fill="white" transform="translate(18 18)"/>
</clipPath>
<clipPath id="clip1_1_6117">
<rect width="40" height="40" fill="white" transform="translate(18 18)"/>
</clipPath>
</defs>
</svg>
