<svg width="75" height="75" viewBox="0 0 75 75" fill="none" xmlns="http://www.w3.org/2000/svg">
<circle cx="37.5" cy="37.5" r="36" stroke="#FFBB00" stroke-width="3"/>
<path d="M53.1894 27.166H47.4064V26.5719C47.4064 23.9176 45.2522 21.7634 42.598 21.7634H33.401C30.7456 21.7634 28.5925 23.9176 28.5925 26.5719V27.166H22.8085C20.1531 27.166 18 29.3191 18 31.9745V49.4281C18 52.0824 20.1531 54.2366 22.8085 54.2366H53.1915C55.8469 54.2366 58 52.0824 58 49.4281V31.9745C57.9979 29.3181 55.8447 27.166 53.1894 27.166ZM37.9979 49.2486C32.9885 49.2486 28.9152 45.1753 28.9152 40.166C28.9152 35.1577 32.9885 31.0833 37.9979 31.0833C43.0072 31.0833 47.0805 35.1566 47.0805 40.166C47.0805 45.1753 43.0061 49.2486 37.9979 49.2486ZM42.8063 40.166C42.8063 42.8149 40.6479 44.9744 37.9979 44.9744C35.3479 44.9744 33.1894 42.8149 33.1894 40.166C33.1894 37.516 35.3479 35.3575 37.9979 35.3575C40.6479 35.3575 42.8063 37.516 42.8063 40.166Z" fill="#FFBB00"/>
</svg>
