<svg width="30" height="28" viewBox="0 0 30 28" fill="none" xmlns="http://www.w3.org/2000/svg">
<path d="M8.67209 21.2255C7.36141 21.1585 7.38609 19.315 8.67203 19.251C12.3147 19.2636 21.9225 19.2544 25.681 19.257C26.709 19.257 27.5885 18.5575 27.8197 17.5559L29.9539 8.31422C30.0761 7.78507 29.9528 7.23739 29.6155 6.81172C29.2783 6.38604 28.7735 6.13847 28.2305 6.13847C26.7185 6.13847 13.884 6.08037 7.31023 6.05417L6.26817 2.18768C6.01802 1.26369 5.17482 0.618408 4.21759 0.618408H0.879373C0.393725 0.618408 0 1.01213 0 1.49778C0 1.98343 0.393725 2.37716 0.879373 2.37716H4.21759C4.38239 2.37716 4.52748 2.48825 4.57034 2.64636L8.57237 17.4946C7.86869 17.5202 7.21327 17.8064 6.71624 18.3107C6.19401 18.8407 5.91355 19.5422 5.92651 20.2861C5.95242 21.7738 7.18407 22.9842 8.67209 22.9842H9.95433C9.76374 23.3842 9.65675 23.8315 9.65675 24.3033C9.65675 26.0005 11.0375 27.3812 12.7347 27.3812C14.4319 27.3812 15.8126 26.0005 15.8126 24.3033C15.8126 23.8314 15.7056 23.3842 15.515 22.9842H21.0677C20.8773 23.3841 20.7703 23.8311 20.7703 24.3028C20.7703 26 22.1511 27.3807 23.8482 27.3807C25.5454 27.3807 26.9262 25.9999 26.9262 24.3028C26.9262 23.8128 26.8105 23.3494 26.6059 22.9377C26.9539 22.8205 27.2048 22.4923 27.2048 22.1048C27.2048 21.6192 26.811 21.2255 26.3254 21.2255H8.67209ZM14.0538 24.3033C14.0538 25.0308 13.462 25.6225 12.7346 25.6225C12.0072 25.6225 11.4154 25.0308 11.4154 24.3033C11.4154 23.5763 12.0066 22.9848 12.7335 22.9842H12.7357C13.4626 22.9848 14.0538 23.5763 14.0538 24.3033ZM23.8483 25.622C23.1209 25.622 22.5291 25.0302 22.5291 24.3029C22.5291 23.5827 23.1093 22.9958 23.8269 22.9842H23.8697C24.5873 22.9958 25.1676 23.5827 25.1676 24.3029C25.1675 25.0302 24.5757 25.622 23.8483 25.622V25.622ZM28.2369 7.90367C28.2421 7.91023 28.2414 7.91334 28.2403 7.91838L27.341 11.8125H24.2959L24.8145 7.88332L28.2234 7.89704C28.2287 7.89716 28.2318 7.89716 28.2369 7.90367V7.90367ZM19.1709 17.4982V13.5713H22.2898L21.7716 17.4982H19.1709ZM14.8102 17.4982L14.2878 13.5713H17.4121V17.4982H14.8102ZM10.762 17.4982H10.7593C10.5449 17.4982 10.3561 17.3536 10.3003 17.1476L9.33643 13.5713H12.5135L13.0359 17.4982H10.762ZM14.0537 11.8126L13.5249 7.83789L17.4121 7.85354V11.8126H14.0537ZM19.1709 11.8126V7.86064L23.0414 7.87623L22.5219 11.8126H19.1709ZM11.7497 7.83068L12.2795 11.8125H8.86238L7.78486 7.81467L11.7497 7.83068ZM25.681 17.4982H23.5455L24.0638 13.5713H26.9348L26.106 17.1601C26.0601 17.3592 25.8853 17.4982 25.681 17.4982Z" fill="#DE3409"/>
</svg>
