<svg width="30" height="30" viewBox="0 0 30 30" fill="none" xmlns="http://www.w3.org/2000/svg">
<g clip-path="url(#clip0_1_2916)">
<g clip-path="url(#clip1_1_2916)">
<path d="M27.2383 11.2969H26.6013C26.3943 10.6492 26.1332 10.0201 25.8206 9.41623L26.2717 8.96511C26.5283 8.70865 26.7318 8.40416 26.8706 8.06904C27.0094 7.73392 27.0809 7.37473 27.0809 7.01199C27.0809 6.64925 27.0094 6.29006 26.8706 5.95494C26.7318 5.61982 26.5283 5.31533 26.2717 5.05887L24.9409 3.7283C24.6844 3.47177 24.38 3.26827 24.0448 3.12943C23.7097 2.9906 23.3505 2.91914 22.9878 2.91914C22.6251 2.91914 22.2659 2.9906 21.9308 3.12943C21.5956 3.26827 21.2912 3.47177 21.0347 3.7283L20.5833 4.17969C19.9794 3.86717 19.3503 3.60601 18.7026 3.39898V2.76177C18.7018 2.02964 18.4107 1.32771 17.8931 0.809968C17.3754 0.292222 16.6735 0.000933416 15.9414 0L14.0586 0C13.3264 0.000789849 12.6244 0.292015 12.1066 0.809777C11.5888 1.32754 11.2976 2.02955 11.2968 2.76177V3.39871C10.6491 3.60569 10.02 3.86685 9.41615 4.17942L8.96531 3.7283C8.70886 3.47174 8.40438 3.26821 8.06926 3.12935C7.73414 2.9905 7.37495 2.91902 7.0122 2.91902C6.64945 2.91902 6.29025 2.9905 5.95513 3.12935C5.62001 3.26821 5.31553 3.47174 5.05909 3.7283L3.72827 5.05914C3.47174 5.3156 3.26824 5.62009 3.12941 5.95521C2.99057 6.29033 2.91911 6.64952 2.91911 7.01226C2.91911 7.375 2.99057 7.73419 3.12941 8.06931C3.26824 8.40443 3.47174 8.70892 3.72827 8.96539L4.17965 9.41677C3.86709 10.0206 3.60593 10.6498 3.39895 11.2975H2.76175C2.02962 11.2983 1.3277 11.5894 0.809961 12.1071C0.292219 12.6247 0.000933408 13.3266 0 14.0587L0 15.9416C0.000861493 16.6738 0.292107 17.3757 0.809849 17.8935C1.32759 18.4112 2.02955 18.7025 2.76175 18.7033H3.39868C3.60567 19.351 3.86683 19.9802 4.17938 20.584L3.72827 21.0352C3.47174 21.2916 3.26824 21.5961 3.12941 21.9312C2.99057 22.2663 2.91911 22.6255 2.91911 22.9883C2.91911 23.351 2.99057 23.7102 3.12941 24.0453C3.26824 24.3805 3.47174 24.6849 3.72827 24.9414L5.05909 26.272C5.31555 26.5285 5.62004 26.732 5.95515 26.8708C6.29027 27.0097 6.64946 27.0811 7.0122 27.0811C7.37494 27.0811 7.73412 27.0097 8.06924 26.8708C8.40436 26.732 8.70884 26.5285 8.96531 26.272L9.41669 25.8206C10.0206 26.1331 10.6497 26.3943 11.2974 26.6013V27.2382C11.2982 27.9704 11.5895 28.6724 12.1072 29.1901C12.625 29.7079 13.3269 29.9991 14.0591 30H15.942C16.6742 29.9991 17.3761 29.7079 17.8939 29.1901C18.4116 28.6724 18.7029 27.9704 18.7037 27.2382V26.6016C19.3514 26.3946 19.9805 26.1334 20.5844 25.8209L21.0355 26.272C21.292 26.5285 21.5964 26.7321 21.9316 26.8709C22.2667 27.0098 22.6259 27.0812 22.9886 27.0812C23.3514 27.0812 23.7106 27.0098 24.0457 26.8709C24.3808 26.7321 24.6853 26.5285 24.9417 26.272L26.2725 24.9411C26.5291 24.6847 26.7326 24.3802 26.8714 24.0451C27.0102 23.7099 27.0817 23.3507 27.0817 22.988C27.0817 22.6253 27.0102 22.2661 26.8714 21.931C26.7326 21.5958 26.5291 21.2913 26.2725 21.0349L25.8206 20.5838C26.1332 19.9799 26.3943 19.3508 26.6013 18.7031H27.2383C27.9704 18.7022 28.6724 18.411 29.1902 17.8932C29.7079 17.3755 29.9991 16.6735 30 15.9413V14.0584C29.9991 13.3263 29.7078 12.6244 29.1901 12.1067C28.6723 11.589 27.9704 11.2978 27.2383 11.2969ZM15.0009 21.5275C13.7098 21.5277 12.4477 21.145 11.3741 20.4279C10.3005 19.7107 9.46368 18.6913 8.9695 17.4985C8.47532 16.3057 8.34596 14.9931 8.59779 13.7268C8.84962 12.4605 9.47132 11.2973 10.3843 10.3844C11.2972 9.4714 12.4604 8.8497 13.7267 8.59787C14.993 8.34603 16.3055 8.47539 17.4983 8.96958C18.6911 9.46376 19.7105 10.3006 20.4277 11.3742C21.1449 12.4478 21.5275 13.71 21.5273 15.0011C21.5251 16.7313 20.8368 18.39 19.6133 19.6135C18.3899 20.837 16.7312 21.5253 15.0009 21.5275Z" fill="#FFBB00"/>
</g>
</g>
<defs>
<clipPath id="clip0_1_2916">
<rect width="30" height="30" fill="white"/>
</clipPath>
<clipPath id="clip1_1_2916">
<rect width="30" height="30" fill="white"/>
</clipPath>
</defs>
</svg>
