<svg width="30" height="30" viewBox="0 0 30 30" fill="none" xmlns="http://www.w3.org/2000/svg">
<path d="M29.9459 4.52638C29.9228 4.36477 29.8552 4.21279 29.7506 4.08744C29.646 3.96209 29.5086 3.86834 29.3537 3.81667C29.1989 3.765 29.0327 3.75747 28.8738 3.79491C28.7149 3.83235 28.5696 3.91328 28.4541 4.02865L27.2112 5.27229C26.8764 5.59213 26.4311 5.7706 25.968 5.7706C25.5049 5.7706 25.0597 5.59213 24.7248 5.27229C24.5614 5.10918 24.4318 4.91546 24.3433 4.7022C24.2549 4.48894 24.2094 4.26034 24.2094 4.02947C24.2094 3.7986 24.2549 3.57 24.3433 3.35674C24.4318 3.14348 24.5614 2.94976 24.7248 2.78665L25.9676 1.54383C26.0831 1.42837 26.1642 1.28301 26.2018 1.12406C26.2393 0.965104 26.2318 0.798833 26.1802 0.643885C26.1285 0.488938 26.0347 0.351438 25.9093 0.246802C25.7839 0.142165 25.6318 0.0745263 25.4702 0.0514689C24.6067 -0.0718662 23.7262 0.0208714 22.9075 0.321376C22.0887 0.62188 21.3573 1.12077 20.7786 1.77336C20.2 2.42595 19.7923 3.21187 19.5919 4.06072C19.3916 4.90957 19.405 5.79486 19.6308 6.63729L6.63588 19.6317C5.79337 19.4061 4.90808 19.393 4.05926 19.5935C3.21044 19.794 2.42457 20.2018 1.77198 20.7804C1.11939 21.3591 0.620447 22.0905 0.319805 22.9092C0.0191624 23.7279 -0.0737984 24.6084 0.0492423 25.4718C0.0723325 25.6334 0.139957 25.7854 0.244541 25.9108C0.349125 26.0361 0.48654 26.1299 0.641396 26.1815C0.796252 26.2332 0.962434 26.2407 1.12133 26.2033C1.28023 26.1659 1.42556 26.0849 1.54106 25.9696L2.78388 24.7259C3.11876 24.4061 3.56403 24.2276 4.02711 24.2276C4.49019 24.2276 4.93545 24.4061 5.27033 24.7259C5.43372 24.889 5.56335 25.0828 5.65179 25.296C5.74023 25.5093 5.78576 25.7379 5.78576 25.9687C5.78576 26.1996 5.74023 26.4282 5.65179 26.6415C5.56335 26.8547 5.43372 27.0485 5.27033 27.2116L4.02752 28.4544C3.91215 28.5699 3.83121 28.7152 3.79377 28.8741C3.75633 29.033 3.76387 29.1992 3.81553 29.354C3.8672 29.5089 3.96096 29.6463 4.0863 29.7509C4.21165 29.8555 4.36364 29.9231 4.52524 29.9462C5.38863 30.0695 6.26911 29.9767 7.08784 29.6762C7.90657 29.3757 8.63798 28.8768 9.21657 28.2242C9.79516 27.5716 10.2029 26.7857 10.4032 25.9369C10.6035 25.088 10.5901 24.2028 10.3643 23.3604L23.3592 10.3657C24.2017 10.5912 25.0869 10.6043 25.9356 10.4039C26.7844 10.2034 27.5702 9.79572 28.2227 9.21719C28.8753 8.63866 29.3743 7.90737 29.675 7.08876C29.9757 6.27015 30.0688 5.38977 29.9459 4.52638Z" fill="#FFBB00"/>
<path d="M24.7258 19.451C24.2699 19.4567 23.8167 19.5226 23.378 19.6468L19.9708 16.2399L16.2404 19.97L19.6465 23.3769C19.5224 23.8159 19.4566 24.2693 19.4507 24.7255C19.4507 25.7687 19.7601 26.7885 20.3396 27.6559C20.9192 28.5233 21.743 29.1993 22.7068 29.5985C23.6706 29.9978 24.7311 30.1022 25.7543 29.8987C26.7774 29.6952 27.7173 29.1928 28.4549 28.4552C29.1926 27.7175 29.6949 26.7777 29.8985 25.7545C30.102 24.7314 29.9975 23.6708 29.5983 22.707C29.1991 21.7432 28.523 20.9194 27.6557 20.3399C26.7883 19.7603 25.7685 19.451 24.7253 19.451H24.7258ZM27.6102 24.5496L27.0874 26.5001C27.0472 26.6491 26.9687 26.7849 26.8596 26.894C26.7506 27.0031 26.6148 27.0816 26.4658 27.1217L24.5153 27.6445C24.3662 27.6845 24.2093 27.6846 24.0603 27.6446C23.9112 27.6047 23.7753 27.5262 23.6663 27.417L22.2385 25.9893C22.1294 25.8803 22.0508 25.7444 22.0109 25.5953C21.971 25.4463 21.971 25.2893 22.0111 25.1403L22.5339 23.1898C22.574 23.0408 22.6525 22.905 22.7616 22.7959C22.8707 22.6869 23.0065 22.6083 23.1555 22.5682L25.106 22.0454C25.255 22.0048 25.4121 22.0045 25.5612 22.0445C25.7104 22.0844 25.8463 22.1632 25.955 22.2729L27.3827 23.7006C27.4919 23.8097 27.5704 23.9455 27.6103 24.0946C27.6502 24.2436 27.6502 24.4006 27.6102 24.5496Z" fill="#FFBB00"/>
<path d="M10.366 6.58958C10.6036 5.6949 10.6025 4.75356 10.3629 3.85942C10.1232 2.96528 9.65338 2.14959 9.00016 1.49367C7.99517 0.534833 6.6595 -0.00012207 5.27048 -0.00012207C3.88146 -0.00012207 2.54579 0.534833 1.5408 1.49367C0.719923 2.31491 0.192928 3.38402 0.0415269 4.53526C-0.109874 5.68649 0.122778 6.85551 0.703409 7.86106C1.28404 8.8666 2.18021 9.65249 3.25296 10.0969C4.32571 10.5412 5.5151 10.6193 6.63671 10.3189L10.0289 13.7596L13.7587 10.03L10.366 6.58958ZM8.06689 4.95922L7.54407 6.90976C7.50396 7.05872 7.42544 7.19452 7.31636 7.3036C7.20728 7.41268 7.07148 7.4912 6.92253 7.53131L4.97198 8.05413C4.82296 8.09414 4.66602 8.09419 4.51698 8.05426C4.36793 8.01433 4.23204 7.93583 4.12298 7.82667L2.69553 6.39895C2.58637 6.28989 2.50787 6.154 2.46794 6.00495C2.42801 5.8559 2.42805 5.69897 2.46807 5.54995L2.99089 3.59995C3.031 3.45099 3.10952 3.31519 3.2186 3.20611C3.32768 3.09703 3.46348 3.01851 3.61243 2.9784L5.56216 2.45449C5.71117 2.41425 5.86816 2.41409 6.01725 2.45403C6.16634 2.49398 6.30223 2.5726 6.41116 2.68195L7.83889 4.10967C7.94828 4.21875 8.02696 4.35476 8.067 4.50397C8.10703 4.65318 8.10699 4.8103 8.06689 4.95949V4.95922Z" fill="#FFBB00"/>
</svg>
