<svg width="30" height="30" viewBox="0 0 30 30" fill="none" xmlns="http://www.w3.org/2000/svg">
<g clip-path="url(#clip0_1_2936)">
<path d="M19.9312 17.3753L20.6966 14.1974C20.699 14.1875 20.7015 14.1776 20.7042 14.1676C20.9067 13.411 21.5028 12.815 22.2596 12.6122L24.5816 11.99C24.2006 11.5357 23.6292 11.2462 22.9913 11.2462H22.3064C22.1315 10.6965 21.9095 10.1607 21.6438 9.64775L22.1285 9.16319C22.9377 8.35388 22.9377 7.03703 22.1285 6.22786L20.6634 4.76271C20.2713 4.37076 19.7501 4.15484 19.1957 4.15484C18.6414 4.15484 18.1201 4.37083 17.728 4.76285L17.2434 5.2474C16.7303 4.98183 16.1945 4.75971 15.645 4.5848V3.89999C15.645 2.75555 14.7139 1.82452 13.5694 1.82452H11.4974C10.353 1.82452 9.42186 2.75555 9.42186 3.89999V4.58487C8.87227 4.75978 8.33647 4.98183 7.82336 5.24747L7.33874 4.76278C6.94665 4.37083 6.4254 4.15491 5.87107 4.15491C5.31675 4.15491 4.7955 4.3709 4.40334 4.76292L2.93839 6.22793C2.12915 7.0371 2.12915 8.35395 2.93839 9.16326L3.42295 9.64782C3.15731 10.1608 2.93526 10.6967 2.76042 11.2463H2.07546C0.931094 11.2464 0 12.1774 0 13.3219V15.394C0 16.5384 0.931094 17.4694 2.07553 17.4694H2.76049C2.93533 18.0192 3.15738 18.5548 3.42302 19.0679L2.93839 19.5525C2.12908 20.3618 2.12908 21.6785 2.93839 22.488L4.40348 23.9529C4.79564 24.345 5.31689 24.5609 5.87121 24.5609C6.42554 24.5609 6.94679 24.3449 7.33881 23.9529L7.82343 23.4684C8.33633 23.734 8.87213 23.9559 9.42193 24.1308V24.8158C9.42193 25.9603 10.353 26.8914 11.4975 26.8914H13.2945C13.1283 26.4952 13.0408 26.0662 13.0407 25.6235C13.0406 24.7482 13.3814 23.9252 14.0003 23.3063L19.9312 17.3753ZM12.5334 19.9282C9.4619 19.9282 6.96301 17.4294 6.96301 14.3579C6.96301 11.2864 9.4619 8.7874 12.5334 8.7874C15.6049 8.7874 18.1038 11.2864 18.1038 14.3579C18.1038 17.4294 15.6049 19.9282 12.5334 19.9282Z" fill="#FFBB00"/>
<path d="M29.611 15.2305L29.5888 15.2082C29.5234 15.1427 29.4363 15.1088 29.3422 15.1059C29.2499 15.1059 29.1613 15.1425 29.096 15.2079L27.5922 16.7116C27.3622 16.9418 27.0562 17.0685 26.7306 17.0685C26.405 17.0685 26.0989 16.9418 25.8686 16.7114C25.6384 16.4812 25.5116 16.1751 25.5116 15.8496C25.5116 15.524 25.6384 15.2179 25.8685 14.9877L27.3722 13.484C27.4376 13.4186 27.4742 13.3299 27.4742 13.2376C27.4741 13.1451 27.4373 13.0565 27.3718 12.9913L27.3499 12.9695C27.0989 12.7185 26.7651 12.5801 26.41 12.5801C26.2941 12.5801 26.1785 12.5954 26.0663 12.6254L22.9783 13.453C22.521 13.5755 22.1608 13.9356 22.0385 14.3927C22.0377 14.3955 22.037 14.3983 22.0363 14.4011L21.2135 17.8174L15.1092 23.9216C14.6547 24.376 14.4044 24.9804 14.4045 25.6233C14.4046 26.2661 14.655 26.8704 15.1096 27.325L15.255 27.4704C15.7095 27.925 16.314 28.1754 16.9569 28.1754C17.5997 28.1754 18.2039 27.9252 18.6585 27.4707L24.7628 21.3665L28.1789 20.5437C28.1817 20.543 28.1846 20.5422 28.1874 20.5416C28.6444 20.4192 29.0045 20.0592 29.1272 19.6018L29.9546 16.5136C30.0769 16.0566 29.9451 15.5648 29.611 15.2305Z" fill="#FFBB00"/>
</g>
<defs>
<clipPath id="clip0_1_2936">
<rect width="30" height="30" fill="white"/>
</clipPath>
</defs>
</svg>
