<svg width="75" height="75" viewBox="0 0 75 75" fill="none" xmlns="http://www.w3.org/2000/svg">
<circle cx="37.5" cy="37.5" r="36" stroke="#FFBB00" stroke-width="3"/>
<g clip-path="url(#clip0_1_2587)">
<path d="M19.4035 42.6747V25.6561C19.4035 24.7105 20.1701 23.9438 21.1159 23.9438H38.1257C39.0714 23.9438 39.838 24.7105 39.838 25.6561V42.6747C39.838 42.99 39.5825 43.2455 39.2672 43.2455H19.9743C19.659 43.2455 19.4035 42.99 19.4035 42.6747ZM33.1395 48.5049C33.1395 50.4663 31.5493 52.0564 29.588 52.0564C27.6266 52.0564 26.0365 50.4663 26.0365 48.5049C26.0365 46.5434 27.6266 44.9534 29.588 44.9534C31.5493 44.9534 33.1395 46.5434 33.1395 48.5049ZM31.3637 48.5049C31.3637 47.5242 30.5686 46.7291 29.5879 46.7291C28.6072 46.7291 27.8121 47.5242 27.8121 48.5049C27.8121 49.4856 28.6072 50.2807 29.5879 50.2807C30.5686 50.2807 31.3637 49.4856 31.3637 48.5049ZM26.5291 44.9533H18.5708C18.2556 44.9533 18 45.2089 18 45.5241V47.2558C18 47.571 18.2556 47.8266 18.5708 47.8266H24.9497C25.1163 46.6838 25.6931 45.6744 26.5291 44.9533ZM51.7214 48.5049C51.7214 50.4663 50.1313 52.0564 48.1699 52.0564C46.2085 52.0564 44.6184 50.4663 44.6184 48.5049C44.6184 46.5434 46.2085 44.9534 48.1699 44.9534C50.1313 44.9533 51.7214 46.5434 51.7214 48.5049ZM49.9458 48.5049C49.9458 47.5242 49.1507 46.7291 48.1699 46.7291C47.1892 46.7291 46.3942 47.5242 46.3942 48.5049C46.3942 49.4856 47.1892 50.2807 48.1699 50.2807C49.1507 50.2807 49.9458 49.4856 49.9458 48.5049ZM58 45.5241V47.2558C58 47.571 57.7444 47.8266 57.4292 47.8266H52.808C52.4775 45.5597 50.5266 43.8117 48.1701 43.8117C45.8131 43.8117 43.8621 45.5598 43.5316 47.8266H34.2262C34.0596 46.6839 33.4829 45.6744 32.6469 44.9533H41.47V28.6271C41.47 27.9967 41.9811 27.4855 42.6116 27.4855H48.0001C49.5174 27.4855 50.9355 28.2392 51.7844 29.4967L55.2583 34.6418C55.7678 35.3965 56.0401 36.2863 56.0401 37.197V44.9533H57.4292C57.7444 44.9533 58 45.2089 58 45.5241ZM52.2097 34.7736L49.4318 30.8263C49.3249 30.6744 49.1508 30.584 48.965 30.584H44.632C44.3169 30.584 44.0612 30.8396 44.0612 31.1548V35.1021C44.0612 35.4174 44.3168 35.6729 44.632 35.6729H51.743C52.2054 35.6729 52.4758 35.1517 52.2097 34.7736Z" fill="#FFBB00"/>
</g>
<defs>
<clipPath id="clip0_1_2587">
<rect width="40" height="40" fill="white" transform="translate(18 18)"/>
</clipPath>
</defs>
</svg>
