<svg width="75" height="75" viewBox="0 0 75 75" fill="none" xmlns="http://www.w3.org/2000/svg">
<circle cx="37.5" cy="37.5" r="36" stroke="#FFBB00" stroke-width="3"/>
<g clip-path="url(#clip0_1_2560)">
<g clip-path="url(#clip1_1_2560)">
<path d="M19.6953 28.5964H28.5153V19.6971L19.6953 28.5964Z" fill="#FFBB00"/>
<path d="M49.404 39.887C46.8797 39.9025 44.464 40.9162 42.6845 42.7068C40.905 44.4973 39.9062 46.9191 39.9062 49.4435C39.9062 51.9679 40.905 54.3897 42.6845 56.1803C44.464 57.9708 46.8797 58.9845 49.404 59C50.664 59.0078 51.913 58.7664 53.0793 58.2896C54.2456 57.8128 55.3061 57.1101 56.1997 56.2219C57.0934 55.3338 57.8026 54.2776 58.2866 53.1143C58.7706 51.951 59.0197 50.7035 59.0197 49.4435C59.0197 48.1835 58.7706 46.936 58.2866 45.7727C57.8026 44.6094 57.0934 43.5532 56.1997 42.6651C55.3061 41.7769 54.2456 41.0742 53.0793 40.5974C51.913 40.1206 50.664 39.8792 49.404 39.887ZM53.8142 49.0553L49.0553 53.8142C48.9449 53.9247 48.8137 54.0123 48.6694 54.0721C48.5251 54.1319 48.3704 54.1626 48.2142 54.1626C48.058 54.1626 47.9033 54.1319 47.759 54.0721C47.6147 54.0123 47.4836 53.9247 47.3731 53.8142L44.9939 51.435C44.7708 51.2119 44.6455 50.9093 44.6455 50.5939C44.6455 50.2784 44.7708 49.9759 44.9939 49.7528C45.2169 49.5297 45.5195 49.4044 45.8349 49.4044C46.1504 49.4044 46.453 49.5297 46.676 49.7528L48.2142 51.291L52.1317 47.3735C52.2421 47.2631 52.3733 47.1754 52.5176 47.1157C52.6619 47.0559 52.8165 47.0251 52.9728 47.0251C53.129 47.0251 53.2836 47.0559 53.428 47.1157C53.5723 47.1754 53.7034 47.2631 53.8139 47.3735C53.9243 47.484 54.0119 47.6151 54.0717 47.7594C54.1315 47.9037 54.1622 48.0584 54.1622 48.2146C54.1622 48.3708 54.1315 48.5255 54.0717 48.6698C54.0119 48.8141 53.9243 48.9452 53.8139 49.0557L53.8142 49.0553Z" fill="#FFBB00"/>
<path d="M24.832 44.8593H38.7288C39.6312 42.7759 41.1218 41.001 43.0179 39.7521C44.914 38.5032 47.1332 37.8345 49.4037 37.828V22.5156C49.4048 21.5858 49.0371 20.6934 48.3812 20.0343C47.7252 19.3753 46.8346 19.0033 45.9048 19H30.664V29.6251C30.6645 29.7787 30.6347 29.9308 30.5763 30.0729C30.5179 30.215 30.4321 30.3441 30.3238 30.453C30.2154 30.5618 30.0867 30.6482 29.9449 30.7073C29.8031 30.7663 29.6511 30.7969 29.4975 30.7971H19V55.4065C18.9961 56.3446 19.3605 57.2467 20.015 57.9187C20.6694 58.5908 21.5615 58.979 22.4993 59H42.4775C40.1607 57.2579 38.5598 54.7298 37.9757 51.8905H24.832C24.5248 51.8851 24.232 51.7593 24.0167 51.5401C23.8013 51.321 23.6807 51.026 23.6807 50.7187C23.6807 50.4115 23.8013 50.1165 24.0167 49.8973C24.232 49.6782 24.5248 49.5523 24.832 49.5469H37.7411C37.7411 48.7598 37.8201 47.9746 37.9768 47.2033H24.832C24.5248 47.1979 24.232 47.072 24.0167 46.8529C23.8013 46.6337 23.6807 46.3387 23.6807 46.0315C23.6807 45.7242 23.8013 45.4292 24.0167 45.2101C24.232 44.9909 24.5248 44.865 24.832 44.8596V44.8593ZM34.1637 26.1095H43.5717C43.8789 26.1149 44.1717 26.2407 44.387 26.4599C44.6024 26.679 44.723 26.974 44.723 27.2813C44.723 27.5885 44.6024 27.8835 44.387 28.1027C44.1717 28.3218 43.8789 28.4477 43.5717 28.4531H34.1637C33.8565 28.4477 33.5637 28.3218 33.3483 28.1027C33.133 27.8835 33.0123 27.5885 33.0123 27.2813C33.0123 26.974 33.133 26.679 33.3483 26.4599C33.5637 26.2407 33.8565 26.1149 34.1637 26.1095ZM34.1637 30.7971H43.5717C43.8789 30.8025 44.1717 30.9283 44.387 31.1475C44.6024 31.3667 44.723 31.6617 44.723 31.9689C44.723 32.2762 44.6024 32.5711 44.387 32.7903C44.1717 33.0095 43.8789 33.1353 43.5717 33.1407H34.1637C33.8565 33.1353 33.5637 33.0095 33.3483 32.7903C33.133 32.5711 33.0123 32.2762 33.0123 31.9689C33.0123 31.6617 33.133 31.3667 33.3483 31.1475C33.5637 30.9283 33.8565 30.8025 34.1637 30.7971ZM24.832 35.4844H43.5717C43.8789 35.4898 44.1717 35.6156 44.387 35.8348C44.6024 36.054 44.723 36.3489 44.723 36.6562C44.723 36.9634 44.6024 37.2584 44.387 37.4776C44.1717 37.6968 43.8789 37.8226 43.5717 37.828H24.832C24.5248 37.8226 24.232 37.6968 24.0167 37.4776C23.8013 37.2584 23.6807 36.9634 23.6807 36.6562C23.6807 36.3489 23.8013 36.054 24.0167 35.8348C24.232 35.6156 24.5248 35.4898 24.832 35.4844ZM24.832 40.172H39.3437C39.6509 40.1774 39.9437 40.3033 40.159 40.5224C40.3744 40.7416 40.495 41.0366 40.495 41.3438C40.495 41.6511 40.3744 41.946 40.159 42.1652C39.9437 42.3844 39.6509 42.5102 39.3437 42.5156H24.832C24.5248 42.5102 24.232 42.3844 24.0167 42.1652C23.8013 41.946 23.6807 41.6511 23.6807 41.3438C23.6807 41.0366 23.8013 40.7416 24.0167 40.5224C24.232 40.3033 24.5248 40.1774 24.832 40.172Z" fill="#FFBB00"/>
</g>
</g>
<defs>
<clipPath id="clip0_1_2560">
<rect width="40" height="40" fill="white" transform="translate(18 19)"/>
</clipPath>
<clipPath id="clip1_1_2560">
<rect width="40" height="40" fill="white" transform="translate(19 19)"/>
</clipPath>
</defs>
</svg>
