<svg width="75" height="75" viewBox="0 0 75 75" fill="none" xmlns="http://www.w3.org/2000/svg">
<circle cx="37.5" cy="37.5" r="36" stroke="#FFBB00" stroke-width="3"/>
<g clip-path="url(#clip0_1_2575)">
<path d="M50.9014 29.2538C50.5446 26.4065 49.2295 23.7591 47.1663 21.7347C45.103 19.7104 42.4106 18.4259 39.5193 18.0865C39.0067 18.029 38.4911 18.0001 37.9752 18C35.4044 17.9995 32.8915 18.7515 30.7554 20.1607C28.6192 21.5698 26.9561 23.5726 25.9771 25.9147C24.9981 28.2568 24.7474 30.8326 25.2567 33.3154C25.7661 35.7981 27.0126 38.0758 28.8381 39.8593C29.8208 40.7846 30.6062 41.894 31.1481 43.1224C31.69 44.3508 31.9776 45.6734 31.9939 47.0127V48.4902H43.9923V47.0062C43.9969 45.6923 44.2687 44.3926 44.7914 43.1839C45.3142 41.9751 46.0773 40.8818 47.0359 39.9684C48.4786 38.5999 49.5788 36.9198 50.2496 35.0606C50.9204 33.2014 51.1434 31.214 50.901 29.2553L50.9014 29.2538Z" fill="#FFBB00"/>
<path d="M37.9919 58C38.6155 57.9993 39.2236 57.8085 39.7328 57.4537C40.242 57.0989 40.6273 56.5976 40.8358 56.0186H35.1479C35.3565 56.5977 35.7417 57.099 36.2509 57.4538C36.7601 57.8085 37.3683 57.9994 37.9919 58Z" fill="#FFBB00"/>
<path d="M32.9673 53.0468C32.9677 53.3094 33.0737 53.5611 33.2622 53.7468C33.4506 53.9325 33.7061 54.037 33.9726 54.0374H42.0143C42.2808 54.037 42.5363 53.9325 42.7248 53.7468C42.9132 53.5611 43.0192 53.3094 43.0196 53.0468V50.0748H32.9673V53.0468Z" fill="#FFBB00"/>
</g>
<defs>
<clipPath id="clip0_1_2575">
<rect width="26" height="40" fill="white" transform="translate(25 18)"/>
</clipPath>
</defs>
</svg>
