<svg width="75" height="75" viewBox="0 0 75 75" fill="none" xmlns="http://www.w3.org/2000/svg">
<circle cx="37.5" cy="37.5" r="36" stroke="#FFBB00" stroke-width="3"/>
<g clip-path="url(#clip0_1_2529)">
<path d="M40.477 35.1261C43.3064 34.7709 46.0964 35.9095 47.8857 38.1137C48.017 38.2755 48.2514 38.3109 48.4197 38.188C49.2302 37.5957 49.9281 36.8558 50.4752 36.0016C53.8852 30.6812 50.0985 23.5 43.6291 23.5C39.4076 23.5 35.928 26.7352 35.5408 30.8568C35.5252 31.0233 35.6171 31.1823 35.7701 31.2498C37.5361 32.0309 39.0448 33.3179 40.1047 34.9541C40.185 35.0782 40.3304 35.1445 40.477 35.1261Z" fill="#FFBB00"/>
<path d="M43.625 22.25C44.3154 22.25 44.875 21.6903 44.875 21V18.5C44.875 17.8097 44.3154 17.25 43.625 17.25C42.9346 17.25 42.375 17.8097 42.375 18.5V21C42.375 21.6903 42.9346 22.25 43.625 22.25Z" fill="#FFBB00"/>
<path d="M56.75 30.375H54.25C53.5596 30.375 53 30.9347 53 31.625C53 32.3153 53.5596 32.875 54.25 32.875H56.75C57.4404 32.875 58 32.3153 58 31.625C58 30.9347 57.4404 30.375 56.75 30.375Z" fill="#FFBB00"/>
<path d="M52.0196 38.2542C51.5316 37.766 50.7401 37.766 50.2519 38.2542C49.7637 38.7424 49.7637 39.5338 50.2519 40.0219L52.0196 41.7896C52.2637 42.0338 52.5835 42.1558 52.9034 42.1558C54.0072 42.1558 54.577 40.8115 53.7873 40.022L52.0196 38.2542Z" fill="#FFBB00"/>
<path d="M35.2271 24.9958C35.7153 25.484 36.5067 25.484 36.9949 24.9958C37.4831 24.5076 37.4831 23.7162 36.9949 23.2281L35.2271 21.4604C34.7392 20.9722 33.9477 20.9722 33.4594 21.4604C32.9712 21.9486 32.9712 22.74 33.4594 23.2281L35.2271 24.9958Z" fill="#FFBB00"/>
<path d="M51.1381 25.362C51.458 25.362 51.7779 25.24 52.0219 24.9958L53.7897 23.2281C54.2779 22.7399 54.2779 21.9485 53.7897 21.4604C53.3016 20.9722 52.5101 20.9722 52.0219 21.4604L50.2543 23.2282C49.4644 24.0179 50.0345 25.362 51.1381 25.362Z" fill="#FFBB00"/>
<path d="M47.1039 44.4375C48.0676 39.6895 43.0952 36.0289 38.8785 38.1927C37.9517 35.1342 35.1111 32.9076 31.75 32.9076C27.388 32.9076 23.9442 36.6435 24.332 41.0213C20.7889 41.2981 18 44.2608 18 47.875C18 51.6614 21.0676 54.75 24.875 54.75H47.2188C50.0665 54.75 52.375 52.4415 52.375 49.5938C52.375 46.872 50.2334 44.4375 47.1039 44.4375Z" fill="#FFBB00"/>
</g>
<defs>
<clipPath id="clip0_1_2529">
<rect width="40" height="40" fill="white" transform="translate(18 18)"/>
</clipPath>
</defs>
</svg>
