<svg width="75" height="75" viewBox="0 0 75 75" fill="none" xmlns="http://www.w3.org/2000/svg">
<circle cx="37.501" cy="37.4999" r="36" stroke="#FFBB00" stroke-width="3"/>
<g clip-path="url(#clip0_1_2595)">
<g clip-path="url(#clip1_1_2595)">
<path d="M38.0009 25.9999C30.3586 25.9999 23.4279 30.2087 18.3139 37.0445C18.1107 37.3195 18.001 37.6531 18.001 37.9957C18.001 38.3384 18.1107 38.672 18.3139 38.9469C23.4279 45.7915 30.3586 49.9999 38.0009 49.9999C45.6432 49.9999 52.5739 45.7912 57.6879 38.9553C57.8911 38.6804 58.0008 38.3468 58.0008 38.0041C58.0008 37.6614 57.8911 37.3279 57.6879 37.0529C52.5739 30.2087 45.6432 25.9999 38.0009 25.9999ZM38.5492 46.4501C36.8422 46.5623 35.1417 46.1481 33.6746 45.2625C32.2075 44.377 31.0434 43.0624 30.3376 41.4939C29.6318 39.9254 29.4178 38.1776 29.7241 36.4835C30.0305 34.7895 30.8426 33.2297 32.0522 32.0121C33.2619 30.7945 34.8115 29.9771 36.4945 29.6687C38.1776 29.3604 39.914 29.5758 41.4723 30.2862C43.0305 30.9966 44.3366 32.1684 45.2164 33.6451C46.0961 35.1219 46.5077 36.8335 46.3962 38.5517C46.2622 40.6022 45.3924 42.5338 43.9489 43.9868C42.5053 45.4399 40.5864 46.3155 38.5492 46.4505V46.4501ZM38.2956 42.5461C37.3767 42.6054 36.4618 42.3816 35.6725 41.9044C34.8832 41.4271 34.2572 40.7191 33.8778 39.8747C33.4983 39.0303 33.3836 38.0896 33.5487 37.1779C33.7139 36.2661 34.1511 35.4267 34.8022 34.7714C35.4533 34.1161 36.2873 33.6761 37.1931 33.5099C38.0989 33.3437 39.0335 33.4594 39.8723 33.8413C40.7112 34.2233 41.4145 34.8535 41.8886 35.648C42.3627 36.4425 42.585 37.3635 42.5259 38.2883C42.4569 39.3949 41.989 40.438 41.2101 41.222C40.4313 42.006 39.3949 42.4769 38.2956 42.5464V42.5461Z" fill="#FFBB00"/>
</g>
</g>
<defs>
<clipPath id="clip0_1_2595">
<rect width="40" height="40" fill="white" transform="translate(18.001 17.9999)"/>
</clipPath>
<clipPath id="clip1_1_2595">
<rect width="40" height="24" fill="white" transform="translate(18.001 25.9999)"/>
</clipPath>
</defs>
</svg>
