<svg width="75" height="75" viewBox="0 0 75 75" fill="none" xmlns="http://www.w3.org/2000/svg">
<circle cx="37.5" cy="37.5" r="36" stroke="#FFBB00" stroke-width="3"/>
<g clip-path="url(#clip0_1_2543)">
<path d="M44.5749 41.1671L45.5954 36.9299C45.5987 36.9167 45.602 36.9035 45.6056 36.8902C45.8756 35.8813 46.6703 35.0867 47.6795 34.8163L50.7755 33.9867C50.2674 33.3809 49.5056 32.995 48.6551 32.995H47.7418C47.5087 32.262 47.2126 31.5476 46.8584 30.8637L47.5046 30.2176C48.5836 29.1385 48.5836 27.3827 47.5046 26.3038L45.5512 24.3503C45.0285 23.8277 44.3335 23.5398 43.5943 23.5398C42.8552 23.5398 42.1602 23.8278 41.6374 24.3505L40.9912 24.9965C40.3071 24.6425 39.5927 24.3463 38.86 24.1131V23.2C38.86 21.6741 37.6185 20.4327 36.0926 20.4327H33.3299C31.8039 20.4327 30.5625 21.6741 30.5625 23.2V24.1132C29.8297 24.3464 29.1153 24.6425 28.4311 24.9966L27.785 24.3504C27.2622 23.8278 26.5672 23.5399 25.8281 23.5399C25.089 23.5399 24.394 23.8279 23.8711 24.3506L21.9179 26.3039C20.8389 27.3828 20.8389 29.1386 21.9179 30.2177L22.5639 30.8638C22.2097 31.5477 21.9137 32.2622 21.6806 32.9951H20.7673C19.2415 32.9952 18 34.2366 18 35.7626V38.5253C18 40.0512 19.2415 41.2926 20.7674 41.2926H21.6806C21.9138 42.0256 22.2098 42.7398 22.564 43.4239L21.9179 44.07C20.8388 45.1491 20.8388 46.9047 21.9179 47.984L23.8713 49.9372C24.3942 50.46 25.0892 50.7479 25.8283 50.7479C26.5674 50.7479 27.2624 50.4599 27.7851 49.9372L28.4312 49.2911C29.1151 49.6453 29.8295 49.9412 30.5626 50.1744V51.0878C30.5626 52.6137 31.804 53.8553 33.33 53.8553H35.7261C35.5044 53.3269 35.3878 52.7549 35.3877 52.1647C35.3875 50.9975 35.8418 49.9003 36.6671 49.0751L44.5749 41.1671ZM34.7112 44.571C30.6159 44.571 27.284 41.2392 27.284 37.1439C27.284 33.0485 30.6159 29.7165 34.7112 29.7165C38.8066 29.7165 42.1384 33.0485 42.1384 37.1439C42.1384 41.2392 38.8066 44.571 34.7112 44.571Z" fill="#FFBB00"/>
<path d="M57.4813 38.3073L57.4517 38.2776C57.3645 38.1903 57.2485 38.145 57.123 38.1412C56.9999 38.1412 56.8818 38.19 56.7947 38.2773L54.7897 40.2822C54.483 40.5891 54.0749 40.758 53.6408 40.758C53.2067 40.758 52.7986 40.5891 52.4915 40.2819C52.1845 39.975 52.0155 39.5669 52.0155 39.1328C52.0155 38.6987 52.1845 38.2905 52.4914 37.9837L54.4963 35.9787C54.5835 35.8915 54.6323 35.7733 54.6322 35.6502C54.6322 35.5269 54.583 35.4088 54.4958 35.3218L54.4666 35.2927C54.1319 34.958 53.6869 34.7736 53.2134 34.7736C53.0588 34.7736 52.9047 34.7939 52.7551 34.8339L48.6378 35.9373C48.0281 36.1007 47.5478 36.5809 47.3847 37.1903C47.3837 37.1941 47.3827 37.1977 47.3818 37.2015L46.2847 41.7565L38.1457 49.8955C37.5396 50.5014 37.206 51.3073 37.2061 52.1645C37.2062 53.0216 37.5401 53.8272 38.1462 54.4334L38.34 54.6272C38.9461 55.2334 39.752 55.5672 40.6093 55.5672C41.4663 55.5672 42.272 55.2336 42.878 54.6276L51.0171 46.4887L55.5719 45.3917C55.5757 45.3908 55.5795 45.3896 55.5832 45.3888C56.1925 45.2256 56.6727 44.7456 56.8363 44.1358L57.9395 40.0182C58.1026 39.4088 57.9269 38.7531 57.4813 38.3073Z" fill="#FFBB00"/>
</g>
<defs>
<clipPath id="clip0_1_2543">
<rect width="40" height="40" fill="white" transform="translate(18 18)"/>
</clipPath>
</defs>
</svg>
