<svg width="75" height="75" viewBox="0 0 75 75" fill="none" xmlns="http://www.w3.org/2000/svg">
<circle cx="37.5" cy="37.5" r="36" stroke="#FFBB00" stroke-width="3"/>
<g clip-path="url(#clip0_1_2552)">
<g clip-path="url(#clip1_1_2552)">
<path d="M54.408 33.036H53.5542C53.2767 32.1677 52.9266 31.3244 52.5076 30.5149L53.1123 29.9102C53.4562 29.5664 53.729 29.1582 53.9151 28.709C54.1012 28.2597 54.197 27.7782 54.197 27.292C54.197 26.8057 54.1012 26.3242 53.9151 25.875C53.729 25.4257 53.4562 25.0176 53.1123 24.6738L51.3283 22.8902C50.9846 22.5463 50.5764 22.2735 50.1271 22.0874C49.6779 21.9013 49.1964 21.8055 48.7102 21.8055C48.2239 21.8055 47.7424 21.9013 47.2932 22.0874C46.8439 22.2735 46.4358 22.5463 46.092 22.8902L45.4869 23.4952C44.6774 23.0763 43.834 22.7262 42.9658 22.4487V21.5945C42.9647 20.6131 42.5745 19.6721 41.8805 18.9781C41.1866 18.2841 40.2458 17.8936 39.2643 17.8923H36.7403C35.7588 17.8934 34.8177 18.2838 34.1237 18.9778C33.4296 19.6719 33.0392 20.613 33.0382 21.5945V22.4483C32.1699 22.7258 31.3266 23.0759 30.5171 23.4949L29.9127 22.8902C29.5689 22.5462 29.1608 22.2734 28.7115 22.0873C28.2623 21.9011 27.7808 21.8053 27.2945 21.8053C26.8083 21.8053 26.3267 21.9011 25.8775 22.0873C25.4283 22.2734 25.0201 22.5462 24.6763 22.8902L22.8923 24.6742C22.5485 25.0179 22.2757 25.4261 22.0896 25.8753C21.9035 26.3246 21.8077 26.8061 21.8077 27.2923C21.8077 27.7786 21.9035 28.2601 22.0896 28.7093C22.2757 29.1586 22.5485 29.5667 22.8923 29.9105L23.4974 30.5156C23.0784 31.3251 22.7284 32.1684 22.4509 33.0367H21.5967C20.6153 33.0378 19.6743 33.428 18.9803 34.122C18.2863 34.8159 17.8958 35.7567 17.8945 36.7382V39.2621C17.8957 40.2437 18.2861 41.1847 18.9802 41.8787C19.6742 42.5728 20.6152 42.9632 21.5967 42.9643H22.4505C22.728 43.8326 23.0781 44.6759 23.4971 45.4854L22.8923 46.0902C22.5485 46.4339 22.2757 46.8421 22.0896 47.2913C21.9035 47.7406 21.8077 48.2221 21.8077 48.7083C21.8077 49.1946 21.9035 49.6761 22.0896 50.1253C22.2757 50.5746 22.5485 50.9827 22.8923 51.3265L24.6763 53.1101C25.0201 53.454 25.4283 53.7268 25.8775 53.9129C26.3268 54.099 26.8083 54.1948 27.2945 54.1948C27.7808 54.1948 28.2623 54.099 28.7115 53.9129C29.1607 53.7268 29.5689 53.454 29.9127 53.1101L30.5178 52.5051C31.3273 52.924 32.1707 53.2741 33.0389 53.5516V54.4054C33.04 55.3869 33.4305 56.3279 34.1245 57.022C34.8186 57.716 35.7595 58.1064 36.7411 58.1076H39.2651C40.2466 58.1064 41.1876 57.716 41.8816 57.022C42.5757 56.3279 42.9661 55.3869 42.9673 54.4054V53.552C43.8355 53.2745 44.6789 52.9244 45.4883 52.5054L46.0931 53.1101C46.4368 53.4541 46.845 53.7269 47.2942 53.913C47.7435 54.0992 48.225 54.195 48.7113 54.195C49.1975 54.195 49.679 54.0992 50.1283 53.913C50.5775 53.7269 50.9857 53.4541 51.3294 53.1101L53.1134 51.3261C53.4573 50.9824 53.7301 50.5742 53.9162 50.125C54.1023 49.6757 54.1981 49.1942 54.1981 48.708C54.1981 48.2217 54.1023 47.7402 53.9162 47.291C53.7301 46.8417 53.4573 46.4336 53.1134 46.0898L52.5076 45.4851C52.9266 44.6756 53.2767 43.8322 53.5542 42.964H54.408C55.3895 42.9628 56.3305 42.5724 57.0245 41.8783C57.7186 41.1843 58.109 40.2433 58.1102 39.2618V36.7378C58.1089 35.7563 57.7184 34.8154 57.0244 34.1215C56.3304 33.4275 55.3894 33.0371 54.408 33.036ZM38.0036 46.7502C36.2729 46.7504 34.5809 46.2375 33.1417 45.2761C31.7025 44.3147 30.5808 42.9481 29.9183 41.3492C29.2559 39.7502 29.0825 37.9908 29.42 36.2933C29.7576 34.5957 30.591 33.0365 31.8149 31.8127C33.0387 30.5888 34.5979 29.7554 36.2954 29.4178C37.9929 29.0803 39.7524 29.2537 41.3514 29.9161C42.9503 30.5786 44.3169 31.7004 45.2783 33.1395C46.2397 34.5787 46.7526 36.2707 46.7523 38.0014C46.7494 40.3208 45.8267 42.5444 44.1866 44.1844C42.5465 45.8245 40.323 46.7472 38.0036 46.7502Z" fill="#FFBB00"/>
</g>
</g>
<defs>
<clipPath id="clip0_1_2552">
<rect width="40" height="40" fill="white" transform="translate(18 18)"/>
</clipPath>
<clipPath id="clip1_1_2552">
<rect width="40" height="40" fill="white" transform="translate(18 18)"/>
</clipPath>
</defs>
</svg>
