<svg width="75" height="75" viewBox="0 0 75 75" fill="none" xmlns="http://www.w3.org/2000/svg">
<circle cx="37.5" cy="37.5" r="36" stroke="#FFBB00" stroke-width="3"/>
<g clip-path="url(#clip0_1_2602)">
<g clip-path="url(#clip1_1_2602)">
<path d="M55.8117 19.9612C55.7939 19.6679 55.5509 19.4393 55.2571 19.4393H47.2835C46.9897 19.4393 46.7467 19.6679 46.729 19.9612L45.823 34.8724H43.3881V28.1371C43.3881 27.9373 43.2809 27.753 43.1071 27.6541C42.9334 27.5553 42.7202 27.5574 42.5484 27.6596L32.0213 33.924V28.1371C32.0213 27.9395 31.9164 27.7568 31.7458 27.6573C31.5753 27.5577 31.3646 27.5562 31.1926 27.6534L18.2823 34.9442C18.1079 35.0428 18 35.2275 18 35.4279V56.0053C18 56.312 18.2487 56.5608 18.5556 56.5608H57.4446C57.5978 56.5608 57.7441 56.4976 57.8491 56.386C57.9541 56.2745 58.0084 56.1245 57.9991 55.9716L55.8117 19.9612ZM31.458 44.9998H23.7916V40.3333H31.458V44.9998ZM42.4574 44.9998H34.791V40.3333H42.4574V44.9998Z" fill="#FFBB00"/>
</g>
</g>
<defs>
<clipPath id="clip0_1_2602">
<rect width="40" height="40" fill="white" transform="translate(18 18)"/>
</clipPath>
<clipPath id="clip1_1_2602">
<rect width="40" height="40" fill="white" transform="translate(18 18)"/>
</clipPath>
</defs>
</svg>
