<svg width="20" height="20" viewBox="0 0 20 20" fill="none" xmlns="http://www.w3.org/2000/svg">
<g clip-path="url(#clip0_1_248)">
<path d="M18.673 15.218L10.2863 19.925C10.1082 20.025 9.89102 20.025 9.71289 19.925L1.32617 15.218C0.927344 14.9945 0.928125 14.4191 1.32617 14.1961L3.41211 13.0254L9.13945 16.2398C9.6736 16.54 10.3264 16.5395 10.8598 16.2398L16.5871 13.0254L18.673 14.1961C19.0719 14.4195 19.0711 14.9949 18.673 15.218Z" fill="#DE3409"/>
<path d="M18.6731 9.48906L16.5871 8.31836L10.8598 11.5328C10.3266 11.8324 9.67344 11.8328 9.13945 11.5328L3.41211 8.31836L1.32617 9.48906C0.928125 9.71211 0.927344 10.2875 1.32617 10.5109L9.71289 15.218C9.89102 15.318 10.1082 15.318 10.2863 15.218L18.6731 10.5109C19.0711 10.2879 19.0719 9.7125 18.6731 9.48906Z" fill="#DE3409"/>
<path d="M18.673 5.80391L10.2863 10.5109C10.1082 10.6109 9.89102 10.6109 9.71289 10.5109L1.32617 5.80391C0.927344 5.58047 0.928125 5.00508 1.32617 4.78203L9.71289 0.075C9.89106 -0.025 10.1082 -0.025 10.2863 0.075L18.673 4.78203C19.0719 5.00547 19.0711 5.58086 18.673 5.80391Z" fill="#DE3409"/>
</g>
<defs>
<clipPath id="clip0_1_248">
<rect width="20" height="20" fill="white"/>
</clipPath>
</defs>
</svg>
