<svg width="20" height="20" viewBox="0 0 20 20" fill="none" xmlns="http://www.w3.org/2000/svg">
<path d="M19.1905 8.88892C18.8403 8.88892 18.5565 9.17278 18.5565 9.52294V16.0832C18.5565 16.6355 18.1088 17.0832 17.5565 17.0832H7.31224C6.95534 17.0832 6.66602 17.3726 6.66602 17.7295C6.66602 18.0864 6.95534 18.3757 7.31224 18.3757H18.8245C19.3768 18.3757 19.8245 17.928 19.8245 17.3757V9.52294C19.8245 9.17278 19.5407 8.88892 19.1905 8.88892Z" fill="#DE3409"/>
<path d="M17.1436 6.50854C16.7935 6.50854 16.5096 6.79241 16.5096 7.14256V13.7029C16.5096 14.2551 16.0619 14.7029 15.5096 14.7029H5.26537C4.90847 14.7029 4.61914 14.9922 4.61914 15.3491C4.61914 15.706 4.90847 15.9953 5.26537 15.9953H16.7776C17.3299 15.9953 17.7776 15.5476 17.7776 14.9953V7.14257C17.7776 6.79241 17.4938 6.50854 17.1436 6.50854Z" fill="#DE3409"/>
<path d="M14.4689 13.6613C15.0212 13.6613 15.4689 13.2136 15.4689 12.6613V4.80851C15.4689 4.45839 15.1851 4.17456 14.835 4.17456C14.4848 4.17456 14.201 4.45839 14.201 4.80851V11.3689C14.201 11.9212 13.7533 12.3689 13.201 12.3689H2.95677C2.59987 12.3689 2.31055 12.6582 2.31055 13.0151C2.31055 13.372 2.59987 13.6613 2.95677 13.6613H14.4689Z" fill="#DE3409"/>
<path d="M12.1585 11.3271C12.7108 11.3271 13.1585 10.8794 13.1585 10.3271V2.84033C13.1585 2.28805 12.7108 1.84033 12.1585 1.84033H1C0.447715 1.84033 0 2.28805 0 2.84033V10.3271C0 10.8794 0.447715 11.3271 1 11.3271H12.1585ZM11.4224 8.59098C11.4224 9.14327 10.9747 9.59098 10.4224 9.59098H2.73611C2.18383 9.59098 1.73611 9.14327 1.73611 8.59098V4.57644C1.73611 4.02416 2.18383 3.57644 2.73611 3.57644H10.4224C10.9747 3.57644 11.4224 4.02416 11.4224 4.57644V8.59098Z" fill="#DE3409"/>
<path d="M2.77734 5.61816C2.77734 5.06588 3.22506 4.61816 3.77734 4.61816H9.38029C9.93257 4.61816 10.3803 5.06588 10.3803 5.61816V7.54937C10.3803 8.10166 9.93257 8.54937 9.38029 8.54937H3.77734C3.22506 8.54937 2.77734 8.10166 2.77734 7.54937V5.61816Z" fill="#DE3409"/>
</svg>
