<svg width="20" height="20" viewBox="0 0 20 20" fill="none" xmlns="http://www.w3.org/2000/svg">
<g clip-path="url(#clip0_1_254)">
<path d="M11.5099 8.49145C10.9897 7.9713 10.9897 7.12836 11.5099 6.6082L15.3022 2.8159L13.3771 2.65973C13.0494 2.63206 12.7586 2.48942 12.5428 2.27361C12.276 2.00677 12.1235 1.62926 12.1573 1.22409C12.2188 0.491201 12.8613 -0.0547733 13.5923 0.00486581L18.3874 0.395287C19.0386 0.449392 19.5532 0.96524 19.606 1.61451L19.9965 6.40838C20.0567 7.14065 19.5101 7.78316 18.7779 7.84341C18.0462 7.90305 17.4037 7.35707 17.3428 6.62419L17.1867 4.70037L13.3944 8.49206C12.873 9.01283 12.0294 9.01283 11.5099 8.49145ZM6.6078 11.5091L2.81672 15.3008L2.65932 13.3763C2.59907 12.6434 1.95656 12.0975 1.2243 12.1577C0.490796 12.2186 -0.0545637 12.8611 0.00446052 13.5921L0.394881 18.3878C0.447757 19.0371 0.964834 19.553 1.61472 19.6052L6.40859 19.9956C7.14086 20.0565 7.78336 19.5093 7.84362 18.7777C7.87743 18.3725 7.72496 17.995 7.45812 17.7275C7.24169 17.5105 6.95272 17.3697 6.62501 17.342L4.69996 17.1846L8.49104 13.3929C9.01304 12.8715 9.01304 12.0286 8.49227 11.5097C7.97089 10.9883 7.12795 10.9883 6.6078 11.5091ZM18.776 12.1565C18.3702 12.1227 17.9933 12.2751 17.7265 12.542C17.5095 12.759 17.3674 13.048 17.341 13.3757L17.1836 15.3001L13.3925 11.5084C12.8705 10.9883 12.0276 10.9883 11.5099 11.5084C10.9879 12.0286 10.9879 12.8722 11.5099 13.3917L15.301 17.1834L13.3753 17.3396C12.6436 17.3998 12.0983 18.0429 12.1573 18.7752C12.2182 19.5068 12.8607 20.0541 13.5942 19.9938L18.3868 19.6028C19.0367 19.5499 19.5526 19.034 19.606 18.3848L19.9952 13.5897C20.0555 12.8592 19.5095 12.2161 18.776 12.1565ZM4.69996 2.8159L6.62501 2.65973C7.35728 2.59947 7.90264 1.95697 7.84362 1.22347C7.78275 0.490586 7.14025 -0.0547733 6.40798 0.00425097L1.61287 0.395287C0.964219 0.448163 0.447142 0.96401 0.394881 1.61451L0.00446052 6.40838C-0.0551786 7.14127 0.490181 7.78316 1.22368 7.84341C1.62763 7.87661 2.00575 7.72475 2.27321 7.45729C2.49024 7.24149 2.63227 6.95251 2.65871 6.62419L2.81611 4.69914L6.60841 8.49083C7.12795 9.0116 7.97212 9.0116 8.49104 8.49083C9.01242 7.97068 9.01242 7.12774 8.49227 6.60759L4.69996 2.8159Z" fill="#DE3409"/>
</g>
<defs>
<clipPath id="clip0_1_254">
<rect width="20" height="20" fill="white"/>
</clipPath>
</defs>
</svg>
