<svg width="20" height="20" viewBox="0 0 20 20" fill="none" xmlns="http://www.w3.org/2000/svg">
<g clip-path="url(#clip0_1_5953)">
<path d="M15.4777 2.92832L13.791 4.61832C14.1 4.83576 14.3895 5.07974 14.656 5.34749C14.9227 5.61504 15.1666 5.90439 15.3852 6.2125L17.0719 4.52583C17.2759 4.31294 17.3884 4.02857 17.3853 3.7337C17.3821 3.43883 17.2636 3.15692 17.0551 2.9484C16.8466 2.73989 16.5647 2.62136 16.2698 2.61823C15.9749 2.6151 15.6906 2.72762 15.4777 2.93166V2.92832Z" fill="#DE3409"/>
<path d="M4.61832 13.7892L2.93166 15.4758C2.72762 15.6887 2.6151 15.9731 2.61823 16.268C2.62136 16.5628 2.73989 16.8447 2.9484 17.0532C3.15692 17.2618 3.43883 17.3803 3.7337 17.3834C4.02857 17.3866 4.31294 17.274 4.52583 17.07L6.2125 15.3833C5.90352 15.1659 5.61408 14.9219 5.34749 14.6542C5.08079 14.3866 4.83688 14.0973 4.61832 13.7892Z" fill="#DE3409"/>
<path d="M15.3852 13.7892C15.1678 14.0982 14.9238 14.3876 14.656 14.6542C14.3885 14.9208 14.0991 15.1647 13.791 15.3833L15.4777 17.07C15.6906 17.274 15.9749 17.3866 16.2698 17.3834C16.5647 17.3803 16.8466 17.2618 17.0551 17.0532C17.2636 16.8447 17.3821 16.5628 17.3853 16.268C17.3884 15.9731 17.2759 15.6887 17.0719 15.4758L15.3852 13.7892Z" fill="#DE3409"/>
<path d="M4.61832 6.20834C4.83575 5.89934 5.07973 5.60992 5.34749 5.34335C5.61504 5.07665 5.90438 4.83275 6.2125 4.61418L4.52583 2.92751C4.31294 2.72346 4.02857 2.61095 3.7337 2.61408C3.43883 2.61721 3.15692 2.73573 2.9484 2.94425C2.73989 3.15276 2.62136 3.43468 2.61823 3.72955C2.6151 4.02442 2.72762 4.30878 2.93166 4.52167L4.61832 6.20834Z" fill="#DE3409"/>
<path d="M3.4164 10C3.41626 9.62243 3.44832 9.24552 3.51224 8.87337H1.1264C0.973515 8.86505 0.820534 8.88796 0.676802 8.94074C0.53307 8.99351 0.401604 9.07504 0.290431 9.18033C0.179258 9.28561 0.0907116 9.41245 0.0301987 9.5531C-0.0303141 9.69375 -0.0615234 9.84526 -0.0615234 9.99838C-0.0615234 10.1515 -0.0303141 10.303 0.0301987 10.4437C0.0907116 10.5843 0.179258 10.7111 0.290431 10.8164C0.401604 10.9217 0.53307 11.0032 0.676802 11.056C0.820534 11.1088 0.973515 11.1317 1.1264 11.1234H3.51224C3.44859 10.7523 3.41653 10.3765 3.4164 10Z" fill="#DE3409"/>
<path d="M18.8723 8.87337H16.4873C16.6153 9.61791 16.6153 10.3788 16.4873 11.1234H18.8723C19.0252 11.1317 19.1782 11.1088 19.3219 11.056C19.4657 11.0032 19.5971 10.9217 19.7083 10.8164C19.8195 10.7111 19.908 10.5843 19.9685 10.4437C20.0291 10.303 20.0603 10.1515 20.0603 9.99838C20.0603 9.84526 20.0291 9.69375 19.9685 9.5531C19.908 9.41245 19.8195 9.28561 19.7083 9.18033C19.5971 9.07504 19.4657 8.99351 19.3219 8.94074C19.1782 8.88796 19.0252 8.86505 18.8723 8.87337Z" fill="#DE3409"/>
<path d="M8.87276 16.4867V18.8717C8.86444 19.0246 8.88735 19.1776 8.94013 19.3213C8.9929 19.4651 9.07443 19.5965 9.17972 19.7077C9.285 19.8188 9.41184 19.9074 9.55249 19.9679C9.69314 20.0284 9.84465 20.0596 9.99777 20.0596C10.1509 20.0596 10.3024 20.0284 10.443 19.9679C10.5837 19.9074 10.7105 19.8188 10.8158 19.7077C10.9211 19.5965 11.0026 19.4651 11.0554 19.3213C11.1082 19.1776 11.1311 19.0246 11.1228 18.8717V16.4867C10.3782 16.6146 9.61731 16.6146 8.87276 16.4867Z" fill="#DE3409"/>
<path d="M8.87276 1.12665V3.51248C9.6173 3.38453 10.3782 3.38453 11.1228 3.51248V1.12665C11.1311 0.973759 11.1082 0.820778 11.0554 0.677046C11.0026 0.533314 10.9211 0.401848 10.8158 0.290675C10.7105 0.179502 10.5837 0.0909557 10.443 0.0304429C10.3024 -0.03007 10.1509 -0.0612793 9.99777 -0.0612793C9.84465 -0.0612793 9.69314 -0.03007 9.55249 0.0304429C9.41184 0.0909557 9.285 0.179502 9.17972 0.290675C9.07443 0.401848 8.9929 0.533314 8.94013 0.677046C8.88735 0.820778 8.86444 0.973759 8.87276 1.12665Z" fill="#DE3409"/>
<path d="M15.2357 11.1266C15.4235 10.2517 15.3892 9.3437 15.136 8.48544C14.8828 7.62717 14.4187 6.84598 13.7861 6.21311C13.1535 5.58024 12.3725 5.11585 11.5143 4.86231C10.6562 4.60877 9.74817 4.57416 8.87319 4.76162C8.24043 4.89706 7.63777 5.14699 7.09487 5.49911C6.45676 5.91183 5.91341 6.45516 5.50069 7.09327C5.14908 7.63625 4.8997 8.23894 4.76486 8.87161C4.57706 9.74652 4.61133 10.6545 4.86453 11.5128C5.11773 12.3711 5.5818 13.1523 6.21442 13.7851C6.84704 14.418 7.62806 14.8824 8.48623 15.1359C9.34439 15.3895 10.2524 15.4241 11.1274 15.2366C11.7601 15.1012 12.3628 14.8512 12.9057 14.4991C13.4974 14.118 14.0081 13.6238 14.4085 13.0449C14.8089 12.4661 15.0911 11.8139 15.239 11.1258L15.2357 11.1266Z" fill="#DE3409"/>
</g>
<defs>
<clipPath id="clip0_1_5953">
<rect width="20" height="20" fill="white"/>
</clipPath>
</defs>
</svg>
