<svg width="75" height="75" viewBox="0 0 75 75" fill="none" xmlns="http://www.w3.org/2000/svg">
<circle cx="37.5" cy="37.5" r="36" stroke="#FFBB00" stroke-width="3"/>
<g clip-path="url(#clip0_1_963)">
<path d="M54.3177 33.0625H53.4684C53.1926 32.1992 52.8445 31.3606 52.4276 30.5549L53.029 29.9535C54.4872 28.4969 54.4481 26.1625 53.0295 24.7453L51.2552 22.9711C49.8388 21.5529 47.504 21.5118 46.047 22.9705L45.4451 23.5724C44.6394 23.1555 43.8007 22.8074 42.9375 22.5316V21.6823C42.9375 19.6519 41.2856 18 39.2552 18H36.7448C34.7144 18 33.0625 19.6519 33.0625 21.6823V22.5316C32.1993 22.8073 31.3606 23.1555 30.5549 23.5724L29.9536 22.9711C28.4995 21.5152 26.1647 21.5494 24.7455 22.9706L22.971 24.7449C21.5529 26.1615 21.5119 28.496 22.9705 29.9531L23.5724 30.555C23.1555 31.3607 22.8074 32.1992 22.5316 33.0626H21.6823C19.652 33.0625 18 34.7144 18 36.7448V39.2552C18 41.2856 19.652 42.9375 21.6823 42.9375H22.5316C22.8074 43.8008 23.1555 44.6394 23.5724 45.4451L22.971 46.0465C21.5128 47.5031 21.5519 49.8375 22.9705 51.2547L24.7448 53.0289C26.1612 54.4471 28.496 54.4882 29.953 53.0295L30.5549 52.4276C31.3606 52.8445 32.1993 53.1926 33.0625 53.4684V54.3177C33.0625 56.3481 34.7145 58 36.7448 58H39.2552C41.2856 58 42.9376 56.3481 42.9376 54.3177V53.4684C43.8008 53.1927 44.6395 52.8445 45.4452 52.4276L46.0465 53.0289C47.5006 54.4848 49.8353 54.4506 51.2546 53.0294L53.0291 51.255C54.4472 49.8384 54.4882 47.5039 53.0295 46.0468L52.4277 45.4449C52.8446 44.6392 53.1927 43.8007 53.4685 42.9373H54.3177C56.3481 42.9373 58.0001 41.2855 58.0001 39.2551V36.7446C58 34.7144 56.348 33.0625 54.3177 33.0625ZM38 46.7031C33.201 46.7031 29.2969 42.7989 29.2969 38C29.2969 33.2011 33.201 29.2969 38 29.2969C42.799 29.2969 46.7031 33.2011 46.7031 38C46.7031 42.7989 42.799 46.7031 38 46.7031Z" fill="#FFBB00"/>
</g>
<defs>
<clipPath id="clip0_1_963">
<rect width="40" height="40" fill="white" transform="translate(18 18)"/>
</clipPath>
</defs>
</svg>
