<svg width="75" height="75" viewBox="0 0 75 75" fill="none" xmlns="http://www.w3.org/2000/svg">
<circle cx="37.5" cy="37.5" r="36" stroke="#FFBB00" stroke-width="3"/>
<g clip-path="url(#clip0_1_948)">
<path d="M27.4902 31.9778C27.6484 33.8695 28.0115 36.4607 28.8331 39.1814C30.5781 44.9592 33.6608 49.0675 38.0002 51.4022C42.3397 49.0675 45.4223 44.9592 47.1673 39.1814C47.9889 36.4609 48.352 33.8696 48.5102 31.9778L38.0002 26.7228L27.4902 31.9778Z" fill="#FFBB00"/>
<path d="M55.6452 28.3482C55.6233 27.9268 55.3764 27.5497 54.999 27.361L38.5244 19.1237C38.1945 18.9588 37.8062 18.9588 37.4762 19.1237L21.0016 27.361C20.6242 27.5497 20.3773 27.9268 20.3555 28.3482C20.343 28.5881 20.072 34.2988 22.0174 40.9291C23.1685 44.852 24.8616 48.2784 27.0498 51.113C29.8072 54.685 33.3512 57.3128 37.5835 58.9234C37.7178 58.9744 37.859 58.9999 38.0003 58.9999C38.1416 58.9999 38.2828 58.9744 38.4171 58.9234C42.6494 57.3128 46.1934 54.685 48.9509 51.113C51.139 48.2784 52.8321 44.852 53.9832 40.9291C55.9286 34.2988 55.6577 28.5881 55.6452 28.3482ZM38.5197 53.7712C38.356 53.8521 38.1781 53.8926 38.0003 53.8926C37.8225 53.8926 37.6445 53.8521 37.4809 53.7712C32.2628 51.1912 28.5984 46.5104 26.5897 39.859C25.585 36.5322 25.2223 33.3974 25.0949 31.3535C25.0656 30.8841 25.3198 30.4428 25.7405 30.2324L37.4763 24.3646C37.8062 24.1997 38.1945 24.1996 38.5245 24.3646L50.2604 30.2324C50.681 30.4427 50.9352 30.8842 50.9059 31.3535C50.7785 33.3976 50.4158 36.5325 49.4111 39.859C47.4022 46.5103 43.7378 51.1911 38.5197 53.7712Z" fill="#FFBB00"/>
</g>
<defs>
<clipPath id="clip0_1_948">
<rect width="40" height="40" fill="white" transform="translate(18 19)"/>
</clipPath>
</defs>
</svg>
