<svg width="75" height="75" viewBox="0 0 75 75" fill="none" xmlns="http://www.w3.org/2000/svg">
<circle cx="37.5" cy="37.5" r="36" stroke="#FFBB00" stroke-width="3"/>
<g clip-path="url(#clip0_1_970)">
<path d="M55.0683 29.6666H54.6667V29.25C54.6667 26.7216 52.61 24.6666 50.0833 24.6666H22.5833C20.0567 24.6666 18 26.7216 18 29.25V45.0833C18 47.6116 20.0567 49.6666 22.5833 49.6666H50.0833C52.61 49.6666 54.6667 47.6116 54.6667 45.0833V44.6666H55.0683C56.6767 44.6666 57.985 43.3583 57.985 41.75V32.5833C57.985 30.975 56.6767 29.6666 55.0683 29.6666ZM41.195 35.95L35.3683 45.115C35.2133 45.36 34.945 45.5 34.6667 45.5C34.5717 45.5 34.4767 45.4833 34.385 45.4516C34.0183 45.3183 33.7917 44.95 33.84 44.5633L34.5567 38.8333L32.16 38.83C31.8467 38.83 31.5617 38.655 31.42 38.3783C31.2783 38.1 31.3017 37.7666 31.4833 37.5116L37.4433 29.18C37.6683 28.8666 38.0833 28.75 38.44 28.895C38.7983 29.0433 39.0067 29.4183 38.945 29.8L38.1467 34.6666L40.4933 34.67C40.7983 34.67 41.0767 34.8366 41.2233 35.1033C41.3683 35.3683 41.3583 35.6933 41.195 35.95Z" fill="#FFBB00"/>
</g>
<defs>
<clipPath id="clip0_1_970">
<rect width="40" height="40" fill="white" transform="translate(18 18)"/>
</clipPath>
</defs>
</svg>
