<svg width="75" height="75" viewBox="0 0 75 75" fill="none" xmlns="http://www.w3.org/2000/svg">
<circle cx="37.5" cy="37.5" r="36" stroke="#FFBB00" stroke-width="3"/>
<g clip-path="url(#clip0_1_984)">
<path d="M49.6406 28.7031H50.4219V29.4844C50.4219 30.1316 50.9466 30.6562 51.5938 30.6562C52.2409 30.6562 52.7656 30.1316 52.7656 29.4844V28.7031H53.5469C54.1941 28.7031 54.7188 28.1784 54.7188 27.5312C54.7188 26.8841 54.1941 26.3594 53.5469 26.3594H52.7656V25.5781C52.7656 24.9309 52.2409 24.4062 51.5938 24.4062C50.9466 24.4062 50.4219 24.9309 50.4219 25.5781V26.3594H49.6406C48.9934 26.3594 48.4688 26.8841 48.4688 27.5312C48.4688 28.1784 48.9934 28.7031 49.6406 28.7031Z" fill="#FFBB00"/>
<path d="M22.2969 23.8594H23.0781V24.6406C23.0781 25.2878 23.6028 25.8125 24.25 25.8125C24.8972 25.8125 25.4219 25.2878 25.4219 24.6406V23.8594H26.2031C26.8503 23.8594 27.375 23.3347 27.375 22.6875C27.375 22.0403 26.8503 21.5156 26.2031 21.5156H25.4219V20.7344C25.4219 20.0872 24.8972 19.5625 24.25 19.5625C23.6028 19.5625 23.0781 20.0872 23.0781 20.7344V21.5156H22.2969C21.6497 21.5156 21.125 22.0403 21.125 22.6875C21.125 23.3347 21.6497 23.8594 22.2969 23.8594Z" fill="#FFBB00"/>
<path d="M40.7344 42.5312C40.674 42.5312 40.613 42.5321 40.5517 42.5338C39.4584 39.2169 36.3381 36.9062 32.7656 36.9062C28.4782 36.9062 24.9484 40.2124 24.5921 44.4093C20.9384 44.5178 18 47.5238 18 51.2031C18 54.9509 21.0491 58 24.7969 58H40.7344C44.9991 58 48.4688 54.5304 48.4688 50.2656C48.4688 46.0009 44.9991 42.5312 40.7344 42.5312Z" fill="#FFBB00"/>
<path d="M55.2656 51.3594H54.4844V50.5781C54.4844 49.9309 53.9597 49.4062 53.3125 49.4062C52.6653 49.4062 52.1406 49.9309 52.1406 50.5781V51.3594H51.3594C50.7122 51.3594 50.1875 51.8841 50.1875 52.5312C50.1875 53.1784 50.7122 53.7031 51.3594 53.7031H52.1406V54.4844C52.1406 55.1316 52.6653 55.6562 53.3125 55.6562C53.9597 55.6562 54.4844 55.1316 54.4844 54.4844V53.7031H55.2656C55.9128 53.7031 56.4375 53.1784 56.4375 52.5312C56.4375 51.8841 55.9128 51.3594 55.2656 51.3594Z" fill="#FFBB00"/>
<path d="M57.7422 37.7639C57.4512 37.4001 56.9723 37.2431 56.5226 37.3644C55.4425 37.6551 54.3618 37.8024 53.3105 37.8024C46.5015 37.8024 40.962 32.2629 40.962 25.4538C40.962 23.437 41.4392 21.507 42.3806 19.7175C42.5975 19.3052 42.5496 18.8037 42.2586 18.4398C41.9677 18.0762 41.4891 17.9191 41.039 18.0403C34.6383 19.763 30.168 25.5914 30.168 32.214C30.168 33.1015 30.2465 33.9747 30.3999 34.8308C31.1688 34.654 31.9612 34.5625 32.7646 34.5625C36.7713 34.5625 40.3629 36.8064 42.1444 40.2859C45.5765 40.769 48.4592 42.9875 49.8738 46.0225C50.904 45.6483 51.893 45.1595 52.8193 44.5605C54.9429 43.1872 56.6873 41.2787 57.8642 39.0415C58.0812 38.6292 58.0332 38.1276 57.7422 37.7639Z" fill="#FFBB00"/>
</g>
<defs>
<clipPath id="clip0_1_984">
<rect width="40" height="40" fill="white" transform="translate(18 18)"/>
</clipPath>
</defs>
</svg>
