<svg width="75" height="75" viewBox="0 0 75 75" fill="none" xmlns="http://www.w3.org/2000/svg">
<circle cx="37.5" cy="37.5" r="36" stroke="#FFBB00" stroke-width="3"/>
<path d="M55.3461 48.4359L38.5727 57.8499C38.2164 58.0499 37.782 58.0499 37.4258 57.8499L20.6523 48.4359C19.8547 47.989 19.8563 46.8382 20.6523 46.3921L24.8242 44.0507L36.2789 50.4796C37.3472 51.0799 38.6528 51.0789 39.7195 50.4796L51.1742 44.0507L55.3461 46.3921C56.1437 46.839 56.1422 47.9898 55.3461 48.4359Z" fill="#FFBB00"/>
<path d="M55.3461 36.9781L51.1742 34.6367L39.7195 41.0656C38.6531 41.6648 37.3469 41.6656 36.2789 41.0656L24.8242 34.6367L20.6523 36.9781C19.8563 37.4242 19.8547 38.5749 20.6523 39.0218L37.4258 48.4359C37.782 48.6359 38.2164 48.6359 38.5727 48.4359L55.3461 39.0218C56.1422 38.5757 56.1437 37.4249 55.3461 36.9781ZM27.6398 40.564C26.9922 40.564 26.468 40.039 26.468 39.3921C26.468 38.7445 26.9922 38.2203 27.6398 38.2203C28.2867 38.2203 28.8117 38.7445 28.8117 39.3921C28.8117 40.039 28.2867 40.564 27.6398 40.564ZM32.6297 43.4663C31.982 43.4663 31.4578 42.9413 31.4578 42.2945C31.4578 41.6468 31.982 41.1226 32.6297 41.1226C33.2766 41.1226 33.8016 41.6468 33.8016 42.2945C33.8016 42.9413 33.2766 43.4663 32.6297 43.4663ZM37.9992 46.1851C37.3523 46.1851 36.8273 45.6609 36.8273 45.0132C36.8273 44.3663 37.3523 43.8413 37.9992 43.8413C38.6461 43.8413 39.1711 44.3663 39.1711 45.0132C39.1711 45.6609 38.6461 46.1851 37.9992 46.1851ZM43.3687 43.4663C42.7219 43.4663 42.1969 42.9413 42.1969 42.2945C42.1969 41.6468 42.7219 41.1226 43.3687 41.1226C44.0164 41.1226 44.5406 41.6468 44.5406 42.2945C44.5406 42.9413 44.0164 43.4663 43.3687 43.4663ZM48.3586 40.564C47.7117 40.564 47.1867 40.039 47.1867 39.3921C47.1867 38.7445 47.7117 38.2203 48.3586 38.2203C49.0062 38.2203 49.5305 38.7445 49.5305 39.3921C49.5305 40.039 49.0062 40.564 48.3586 40.564Z" fill="#FFBB00"/>
<path d="M55.3461 29.6078L38.5727 39.0219C38.2163 39.2219 37.782 39.2219 37.4258 39.0219L20.6523 29.6078C19.8547 29.1609 19.8563 28.0102 20.6523 27.5641L37.4258 18.15C37.7821 17.95 38.2164 17.95 38.5727 18.15L55.3461 27.5641C56.1437 28.0109 56.1422 29.1617 55.3461 29.6078Z" fill="#FFBB00"/>
</svg>
