<svg width="30" height="30" viewBox="0 0 30 30" fill="none" xmlns="http://www.w3.org/2000/svg">
<g clip-path="url(#clip0_1_589)">
<path d="M27.8012 8.75H27.5V8.4375C27.5 6.54125 25.9575 5 24.0625 5H3.4375C1.5425 5 0 6.54125 0 8.4375V20.3125C0 22.2088 1.5425 23.75 3.4375 23.75H24.0625C25.9575 23.75 27.5 22.2088 27.5 20.3125V20H27.8012C29.0075 20 29.9887 19.0188 29.9887 17.8125V10.9375C29.9887 9.73125 29.0075 8.75 27.8012 8.75ZM17.3962 13.4625L13.0262 20.3363C12.91 20.52 12.7087 20.625 12.5 20.625C12.4288 20.625 12.3575 20.6125 12.2888 20.5888C12.0138 20.4888 11.8438 20.2125 11.88 19.9225L12.4175 15.625L10.62 15.6225C10.385 15.6225 10.1713 15.4913 10.065 15.2838C9.95875 15.075 9.97625 14.825 10.1125 14.6338L14.5825 8.385C14.7513 8.15 15.0625 8.0625 15.33 8.17125C15.5988 8.2825 15.755 8.56375 15.7088 8.85L15.11 12.5L16.87 12.5025C17.0987 12.5025 17.3075 12.6275 17.4175 12.8275C17.5263 13.0263 17.5187 13.27 17.3962 13.4625Z" fill="#FFB800"/>
</g>
<defs>
<clipPath id="clip0_1_589">
<rect width="30" height="30" fill="white"/>
</clipPath>
</defs>
</svg>
