<svg width="30" height="18" viewBox="0 0 30 18" fill="none" xmlns="http://www.w3.org/2000/svg">
<g clip-path="url(#clip0_1_598)">
<path d="M15 0.0233765C9.26818 0.0233765 4.07027 3.15142 0.234735 8.23223C-0.0782449 8.64848 -0.0782449 9.23002 0.234735 9.64628C4.07027 14.7332 9.26818 17.8612 15 17.8612C20.7318 17.8612 25.9297 14.7332 29.7653 9.65236C30.0782 9.2361 30.0782 8.65456 29.7653 8.23831C25.9297 3.15142 20.7318 0.0233765 15 0.0233765ZM15.4112 15.2229C11.6063 15.4616 8.46428 12.3336 8.70357 8.53217C8.89998 5.39799 11.4468 2.8576 14.5888 2.66171C18.3937 2.42298 21.5357 5.55102 21.2964 9.35241C21.0939 12.4805 18.5471 15.0208 15.4112 15.2229ZM15.2209 12.3213C13.1712 12.4498 11.4775 10.7665 11.6125 8.72195C11.7168 7.03238 13.0914 5.66733 14.7852 5.55714C16.8349 5.4286 18.5287 7.11198 18.3937 9.15656C18.2832 10.8522 16.9086 12.2173 15.2209 12.3213Z" fill="#FFB800"/>
</g>
<defs>
<clipPath id="clip0_1_598">
<rect width="30" height="17.8846" fill="white"/>
</clipPath>
</defs>
</svg>
