<svg width="75" height="75" viewBox="0 0 75 75" fill="none" xmlns="http://www.w3.org/2000/svg">
<circle cx="37.5" cy="37.5" r="36" stroke="#FFBB00" stroke-width="3"/>
<g clip-path="url(#clip0_1_922)">
<path d="M38 45C38 45.5523 38.4477 46 39 46H47C47.5523 46 48 45.5523 48 45V44C48 43.4477 47.5523 43 47 43H39C38.4477 43 38 43.4477 38 44V45ZM38 18C27 18 18 27 18 38C18 49 27 58 38 58C49 58 58 49 58 38C58 27 49 18 38 18ZM26 31C26 30.4477 26.4477 30 27 30H29C29.5523 30 30 29.5523 30 29V27C30 26.4477 30.4477 26 31 26H32C32.5523 26 33 26.4477 33 27V29C33 29.5523 33.4477 30 34 30H36C36.5523 30 37 30.4477 37 31V32C37 32.5523 36.5523 33 36 33H34C33.4477 33 33 33.4477 33 34V36C33 36.5523 32.5523 37 32 37H31C30.4477 37 30 36.5523 30 36V34C30 33.4477 29.5523 33 29 33H27C26.4477 33 26 32.5523 26 32V31ZM38 54C33.6 54 29.6 52.2 26.6 49.4L49.4 26.6C52.2 29.6 54 33.6 54 38C54 46.8 46.8 54 38 54Z" fill="#FFBB00"/>
</g>
<defs>
<clipPath id="clip0_1_922">
<rect width="40" height="40" fill="white" transform="translate(18 18)"/>
</clipPath>
</defs>
</svg>
