<svg width="75" height="75" viewBox="0 0 75 75" fill="none" xmlns="http://www.w3.org/2000/svg">
<circle cx="37.5" cy="37.5" r="36" stroke="#FFBB00" stroke-width="3"/>
<path d="M46.0363 27.1689C42.4237 22.2959 38.7593 18.3534 38.7225 18.3142C38.5357 18.1139 38.2742 18 38.0003 18C37.7264 18 37.4648 18.1138 37.278 18.3142C37.2414 18.3534 33.5769 22.2959 29.9643 27.1689C25.0295 33.8252 22.5273 38.9923 22.5273 42.5264C22.5273 51.0584 29.4685 58 38.0003 58C46.5323 58 53.4734 51.0586 53.4734 42.5264C53.4734 38.9923 50.9712 33.8253 46.0363 27.1689ZM39.5456 52.9927C38.7345 53.1844 37.8984 53.2816 37.0608 53.2816C31.1065 53.2816 26.2623 48.4373 26.2623 42.4829C26.2623 41.662 26.515 40.1747 27.7189 37.7512C27.8399 37.5076 28.1185 37.3867 28.3793 37.464C28.6399 37.5415 28.8069 37.7955 28.775 38.0655C28.7474 38.2987 28.7334 38.5182 28.7334 38.718C28.7334 45.1004 33.2728 50.6445 39.527 51.9001C39.7845 51.9519 39.9714 52.1761 39.9759 52.4388C39.9805 52.7018 39.8014 52.9321 39.5456 52.9927Z" fill="#FFBB00"/>
</svg>
