<svg width="75" height="75" viewBox="0 0 75 75" fill="none" xmlns="http://www.w3.org/2000/svg">
<circle cx="37.5" cy="37.5" r="36" stroke="#FFBB00" stroke-width="3"/>
<g clip-path="url(#clip0_1_930)">
<path d="M47.2204 36.8866C46.6992 32.6343 43.3431 29.2866 39.0895 28.7763C38.7232 28.7345 38.3549 28.7135 37.9863 28.7134C34.2271 28.7192 30.8422 30.9911 29.4127 34.4679C27.9832 37.9447 28.791 41.9405 31.459 44.5888C32.8778 45.9475 33.6903 47.8198 33.7135 49.7841V50.857H42.2849V49.7786C42.2914 47.8515 43.0753 46.0086 44.4592 44.6673C46.5493 42.6507 47.5717 39.77 47.2203 36.887V36.8866H47.2204Z" fill="#FFBB00"/>
<path d="M38.0009 58.0001C38.9087 57.9991 39.7177 57.4271 40.0213 56.5715H35.9805C36.2841 57.4271 37.093 57.9991 38.0009 58.0001Z" fill="#FFBB00"/>
<path d="M34.4277 54.4287C34.4283 54.823 34.7477 55.1424 35.142 55.143H40.8563C41.2506 55.1424 41.5701 54.823 41.5706 54.4287V52.2858H34.4277V54.4287Z" fill="#FFBB00"/>
<path d="M38.0009 24.4286C38.7898 24.4286 39.4294 23.789 39.4294 23V19.4286C39.4294 18.6396 38.7898 18 38.0009 18C37.2119 18 36.5723 18.6396 36.5723 19.4286V23C36.5723 23.789 37.2119 24.4286 38.0009 24.4286Z" fill="#FFBB00"/>
<path d="M25.9437 27.9641C26.509 28.504 27.3988 28.504 27.9641 27.9641C28.2321 27.6962 28.3827 27.3327 28.3827 26.9538C28.3827 26.5749 28.2321 26.2115 27.9641 25.9436L25.4386 23.4185C25.1708 23.1505 24.8074 23 24.4286 23C24.0498 23 23.6864 23.1505 23.4185 23.4185C23.1505 23.6863 23 24.0497 23 24.4286C23 24.8075 23.1505 25.1708 23.4185 25.4387L25.9437 27.9641Z" fill="#FFBB00"/>
<path d="M24.4286 37.9999C24.4286 37.2109 23.789 36.5713 23 36.5713H19.4286C18.6399 36.5721 18.0008 37.2112 18 37.9999C18.0008 38.7885 18.6399 39.4277 19.4286 39.4285H23C23.789 39.4285 24.4286 38.7889 24.4286 37.9999Z" fill="#FFBB00"/>
<path d="M27.3246 47.6641C26.8309 47.5321 26.3043 47.6739 25.9436 48.036L23.4185 50.5615C23.1505 50.8293 23 51.1927 23 51.5716C23 51.9505 23.1505 52.3138 23.4185 52.5817C23.9837 53.1216 24.8734 53.1216 25.4386 52.5817L27.9641 50.0566C28.3261 49.6959 28.468 49.1693 28.336 48.6756C28.2041 48.1818 27.8184 47.796 27.3246 47.6641Z" fill="#FFBB00"/>
<path d="M50.0561 48.036C49.6954 47.6739 49.1688 47.5321 48.675 47.664C48.1813 47.796 47.7957 48.1816 47.6637 48.6753C47.5318 49.1691 47.6736 49.6956 48.0357 50.0563L50.5611 52.5814C51.1263 53.1213 52.0161 53.1213 52.5812 52.5814C52.8492 52.3136 52.9997 51.9503 52.9997 51.5713C52.9997 51.1924 52.8492 50.8292 52.5812 50.5613L50.0561 48.036Z" fill="#FFBB00"/>
<path d="M56.5723 36.5713H53.0009C52.2119 36.5713 51.5723 37.2109 51.5723 37.9999C51.5723 38.7889 52.2119 39.4285 53.0009 39.4285H56.5723C57.3613 39.4285 58.0009 38.7889 58.0009 37.9999C58.0009 37.2109 57.3613 36.5713 56.5723 36.5713Z" fill="#FFBB00"/>
<path d="M50.0563 27.9641L52.5813 25.4386C52.9422 25.0778 53.0831 24.5518 52.951 24.0589C52.8189 23.5659 52.4339 23.1809 51.9409 23.0488C51.448 22.9167 50.922 23.0576 50.5612 23.4185L48.0357 25.9435C47.7677 26.2114 47.6172 26.5749 47.6172 26.9538C47.6172 27.3327 47.7677 27.6961 48.0357 27.964C48.6011 28.504 49.491 28.504 50.0563 27.9641Z" fill="#FFBB00"/>
</g>
<defs>
<clipPath id="clip0_1_930">
<rect width="40" height="40" fill="white" transform="translate(18 18)"/>
</clipPath>
</defs>
</svg>
