<svg width="10" height="20" viewBox="0 0 10 20" fill="none" xmlns="http://www.w3.org/2000/svg">
<g clip-path="url(#clip0_1_5982)">
<path d="M7.36325 11.2292V2.625C7.36325 1.92881 7.088 1.26113 6.59804 0.768845C6.10808 0.276562 5.44354 0 4.75063 0C4.05772 0 3.39319 0.276562 2.90323 0.768845C2.41327 1.26113 2.138 1.92881 2.138 2.625V11.2292C1.30167 11.7834 0.660638 12.5885 0.306126 13.53C-0.0483864 14.4715 -0.0983121 15.5013 0.163458 16.4729C0.425228 17.4446 0.985363 18.3085 1.76413 18.9417C2.54289 19.575 3.5006 19.9453 4.50097 20H4.7498C5.77188 19.9975 6.76602 19.6645 7.58509 19.0503C8.40417 18.436 9.00468 17.5732 9.29773 16.5894C9.59078 15.6055 9.56081 14.5531 9.21227 13.5877C8.86372 12.6224 8.21512 11.7954 7.36243 11.2292H7.36325ZM6.57532 15.8542C6.44838 16.2371 6.20273 16.569 5.87437 16.8015C5.54601 17.0339 5.15221 17.1546 4.75063 17.1458C4.29416 17.1454 3.85263 16.9823 3.50459 16.6856C3.15655 16.3888 2.92458 15.9776 2.84994 15.5251C2.7753 15.0727 2.86283 14.6083 3.09696 14.2146C3.33109 13.8209 3.69665 13.5234 4.12858 13.375V6.125C4.12858 5.95924 4.19411 5.80027 4.31077 5.68306C4.42743 5.56585 4.58565 5.5 4.75063 5.5C4.91561 5.5 5.07383 5.56585 5.19048 5.68306C5.30714 5.80027 5.37269 5.95924 5.37269 6.125V13.3958C5.61382 13.4757 5.83666 13.6031 6.02815 13.7705C6.21965 13.938 6.37593 14.1422 6.48786 14.3712C6.59979 14.6002 6.66511 14.8493 6.67998 15.1039C6.69486 15.3586 6.65899 15.6136 6.57449 15.8542H6.57532Z" fill="#DE3409"/>
</g>
<defs>
<clipPath id="clip0_1_5982">
<rect width="9.5" height="20" fill="white"/>
</clipPath>
</defs>
</svg>
