<svg width="17" height="17" viewBox="0 0 17 17" fill="none" xmlns="http://www.w3.org/2000/svg">
<path d="M8.50002 0C3.80715 0 0 3.80235 0 8.49553C0 13.1932 3.80715 17 8.49998 17C13.1954 17 16.9993 13.1932 16.9993 8.49553C16.9994 3.80235 13.1954 0 8.50002 0ZM9.10573 13.2252C8.90831 13.4009 8.67953 13.4891 8.42035 13.4891C8.15219 13.4891 7.91828 13.4024 7.71862 13.2287C7.51865 13.0552 7.41847 12.8124 7.41847 12.5004C7.41847 12.2236 7.51542 11.9906 7.7087 11.8018C7.90199 11.613 8.13908 11.5187 8.42035 11.5187C8.69712 11.5187 8.93008 11.613 9.11919 11.8018C9.30799 11.9906 9.4027 12.2236 9.4027 12.5004C9.40235 12.8079 9.30346 13.0495 9.10573 13.2252ZM11.5673 7.12248C11.4157 7.40374 11.2355 7.64627 11.0266 7.85077C10.8183 8.05523 10.4436 8.39889 9.90279 8.88206C9.75368 9.01838 9.6337 9.13805 9.54379 9.24107C9.45388 9.34444 9.38668 9.4388 9.34283 9.52457C9.29866 9.61031 9.26477 9.69609 9.24075 9.78183C9.21674 9.86725 9.1806 10.018 9.13163 10.2333C9.04846 10.6903 8.78703 10.9187 8.34768 10.9187C8.1192 10.9187 7.92722 10.8441 7.77074 10.6947C7.6149 10.5453 7.53715 10.3235 7.53715 10.0292C7.53715 9.66023 7.59443 9.34054 7.70866 9.07018C7.82227 8.79978 7.97426 8.56269 8.16306 8.35823C8.35217 8.15376 8.60686 7.9112 8.9278 7.62993C9.20906 7.38386 9.41227 7.1983 9.53737 7.07315C9.66279 6.94774 9.76809 6.80823 9.85351 6.65462C9.9396 6.50071 9.98184 6.334 9.98184 6.15386C9.98184 5.80221 9.85162 5.50591 9.58988 5.26433C9.32846 5.02275 8.99118 4.90178 8.57808 4.90178C8.0946 4.90178 7.73878 5.02369 7.5103 5.26752C7.28183 5.51134 7.0889 5.87035 6.9305 6.3449C6.78075 6.84153 6.49724 7.08981 6.08029 7.08981C5.83422 7.08981 5.62657 7.00308 5.4573 6.82964C5.28834 6.6562 5.20387 6.46839 5.20387 6.26617C5.20387 5.8489 5.33794 5.42588 5.60578 4.99743C5.87394 4.56898 6.26495 4.21411 6.77914 3.93316C7.29301 3.6519 7.89301 3.51109 8.57808 3.51109C9.21517 3.51109 9.77738 3.62883 10.265 3.86404C10.7527 4.09889 11.1296 4.41857 11.3955 4.82301C11.6611 5.22713 11.7942 5.66648 11.7942 6.14103C11.7948 6.51386 11.719 6.84122 11.5673 7.12248Z" fill="#BDBDBD"/>
</svg>
