<svg width="20" height="20" viewBox="0 0 20 20" fill="none" xmlns="http://www.w3.org/2000/svg">
<g clip-path="url(#clip0_1_241)">
<path d="M17.2696 7.60777C17.1488 7.33684 16.8799 7.16238 16.5833 7.16238C15.7246 7.16238 10.9305 7.16238 10.9305 7.16238L13.2557 1.0172C13.3431 0.786392 13.3115 0.527371 13.1712 0.324254C13.0309 0.121209 12.7999 0 12.5531 0H6.9606C6.64825 0 6.36844 0.193274 6.25788 0.485425L2.71269 9.85484C2.62535 10.0857 2.65693 10.3447 2.79724 10.5478C2.93755 10.7508 3.16858 10.8721 3.41541 10.8721L9.68884 10.8344L6.37424 19.65C6.33046 19.7665 6.37579 19.8977 6.48216 19.9624C6.58853 20.027 6.7259 20.0068 6.80913 19.9142L17.1422 8.41598C17.3404 8.1953 17.3903 7.87869 17.2696 7.60777Z" fill="#DE3409"/>
</g>
<defs>
<clipPath id="clip0_1_241">
<rect width="20" height="20" fill="white"/>
</clipPath>
</defs>
</svg>
