<svg width="75" height="75" viewBox="0 0 75 75" fill="none" xmlns="http://www.w3.org/2000/svg">
<circle cx="37.5" cy="37.5" r="36" stroke="#FFBB00" stroke-width="3"/>
<g clip-path="url(#clip0_1_521)">
<path d="M38.0002 25.7654C31.2433 25.7654 25.7656 31.243 25.7656 38C25.7656 44.757 31.2433 50.2346 38.0002 50.2346C44.7572 50.2346 50.2349 44.757 50.2349 38C50.2349 31.243 44.7572 25.7654 38.0002 25.7654ZM38.0002 48.0001V28C42.7484 27.9874 46.8432 31.3334 47.7768 35.9888C48.0747 37.3131 48.0747 38.6869 47.7768 40.0112C46.8431 44.6668 42.7484 48.0128 38.0002 48.0001Z" fill="#FFBB00"/>
<path d="M47.8323 28.1677C48.0385 28.3782 48.3197 28.4986 48.6144 28.5029C48.9091 28.4987 49.1902 28.3782 49.3965 28.1677L52.1339 25.4302C52.6276 25.0599 52.7276 24.3596 52.3574 23.8659C51.9872 23.3722 51.2868 23.2723 50.7931 23.6425C50.7084 23.706 50.6331 23.7813 50.5696 23.8659L47.8322 26.6034C47.4002 26.9997 47.3713 27.6712 47.7677 28.1031C47.7883 28.1255 47.8098 28.147 47.8323 28.1677Z" fill="#FFBB00"/>
<path d="M27.9436 47.8325C27.5464 47.5346 27 47.5346 26.6028 47.8325L23.8654 50.5699C23.4334 50.9662 23.4045 51.6378 23.8009 52.0696C23.8214 52.0921 23.843 52.1136 23.8654 52.1341C24.2616 52.5661 24.9332 52.595 25.3651 52.1986C25.3875 52.1781 25.409 52.1565 25.4295 52.1341L28.167 49.3967C28.5373 48.9031 28.4373 48.2027 27.9436 47.8325Z" fill="#FFBB00"/>
<path d="M52.1345 50.5699L49.3971 47.8324C48.9034 47.4621 48.2031 47.5622 47.8328 48.0559C47.5349 48.4532 47.5349 48.9995 47.8328 49.3967L50.5702 52.1342C50.9665 52.5662 51.6381 52.595 52.07 52.1986C52.0924 52.1781 52.1139 52.1565 52.1344 52.1342C52.5664 51.7379 52.5953 51.0664 52.1989 50.6345C52.1785 50.6119 52.157 50.5904 52.1345 50.5699Z" fill="#FFBB00"/>
<path d="M26.6035 28.1676C26.9998 28.5996 27.6714 28.6285 28.1033 28.2321C28.1257 28.2116 28.1472 28.19 28.1677 28.1676C28.5997 27.7713 28.6286 27.0998 28.2322 26.6679C28.2117 26.6455 28.1901 26.624 28.1677 26.6034L25.4303 23.866C24.9366 23.4957 24.2363 23.5958 23.866 24.0895C23.5681 24.4867 23.5681 25.0331 23.866 25.4303L26.6035 28.1676Z" fill="#FFBB00"/>
<path d="M38.0001 24.0894C38.6172 24.0894 39.1175 23.5892 39.1175 22.9721V19.1173C39.1175 18.5002 38.6172 18 38.0001 18C37.383 18 36.8828 18.5002 36.8828 19.1173V22.9721C36.8828 23.5892 37.383 24.0894 38.0001 24.0894Z" fill="#FFBB00"/>
<path d="M38.0001 51.9108C37.383 51.9108 36.8828 52.411 36.8828 53.0281V56.8828C36.8828 57.4999 37.383 58.0002 38.0001 58.0002C38.6172 58.0002 39.1175 57.4999 39.1175 56.8828V53.0281C39.1175 52.411 38.6172 51.9108 38.0001 51.9108Z" fill="#FFBB00"/>
<path d="M56.8822 36.8828H53.0275C52.4104 36.8828 51.9102 37.383 51.9102 38.0001C51.9102 38.6172 52.4104 39.1175 53.0275 39.1175H56.8822C57.4993 39.1175 57.9995 38.6172 57.9995 38.0001C57.9995 37.383 57.4992 36.8828 56.8822 36.8828Z" fill="#FFBB00"/>
<path d="M24.0894 38.0001C24.0894 37.383 23.5892 36.8828 22.9721 36.8828H19.1173C18.5002 36.8828 18 37.383 18 38.0001C18 38.6172 18.5002 39.1175 19.1173 39.1175H22.9721C23.5892 39.1175 24.0894 38.6172 24.0894 38.0001Z" fill="#FFBB00"/>
</g>
<defs>
<clipPath id="clip0_1_521">
<rect width="40" height="40" fill="white" transform="translate(18 18)"/>
</clipPath>
</defs>
</svg>
