<svg width="75" height="75" viewBox="0 0 75 75" fill="none" xmlns="http://www.w3.org/2000/svg">
<circle cx="37.5" cy="37.5" r="36" stroke="#FFBB00" stroke-width="3"/>
<path d="M38 26.0312C30.3576 26.0312 23.427 30.2118 18.313 37.0022C17.8957 37.5585 17.8957 38.3358 18.313 38.8921C23.427 45.6906 30.3576 49.8712 38 49.8712C45.6424 49.8712 52.573 45.6906 57.687 38.9002C58.1043 38.3439 58.1043 37.5667 57.687 37.0103C52.573 30.2118 45.6424 26.0312 38 26.0312ZM38.5482 46.3451C33.4751 46.6641 29.2857 42.4836 29.6048 37.4031C29.8666 33.2143 33.2623 29.8191 37.4518 29.5573C42.5249 29.2383 46.7143 33.4188 46.3952 38.4993C46.1252 42.6799 42.7295 46.0751 38.5482 46.3451ZM38.2945 42.4672C35.5616 42.639 33.3033 40.3892 33.4833 37.6567C33.6223 35.3986 35.4552 33.5743 37.7136 33.427C40.4466 33.2552 42.7049 35.505 42.5249 38.2376C42.3777 40.5038 40.5448 42.3282 38.2945 42.4672Z" fill="#FFBB00"/>
</svg>
