<svg width="75" height="75" viewBox="0 0 75 75" fill="none" xmlns="http://www.w3.org/2000/svg">
<circle cx="37.5" cy="37.5" r="36" stroke="#FFBB00" stroke-width="3"/>
<path d="M44.5749 41.1671L45.5954 36.93C45.5987 36.9167 45.602 36.9035 45.6056 36.8902C45.8756 35.8813 46.6703 35.0867 47.6795 34.8164L50.7755 33.9868C50.2674 33.381 49.5056 32.995 48.6551 32.995H47.7418C47.5087 32.2621 47.2126 31.5477 46.8584 30.8637L47.5046 30.2176C48.5836 29.1385 48.5836 27.3828 47.5046 26.3039L45.5512 24.3503C45.0285 23.8277 44.3335 23.5398 43.5943 23.5398C42.8552 23.5398 42.1602 23.8278 41.6374 24.3505L40.9912 24.9966C40.3071 24.6425 39.5927 24.3463 38.86 24.1131V23.2C38.86 21.6741 37.6185 20.4327 36.0926 20.4327H33.3299C31.8039 20.4327 30.5625 21.6741 30.5625 23.2V24.1132C29.8297 24.3464 29.1153 24.6425 28.4311 24.9967L27.785 24.3504C27.2622 23.8278 26.5672 23.5399 25.8281 23.5399C25.089 23.5399 24.394 23.8279 23.8711 24.3506L21.9179 26.304C20.8389 27.3828 20.8389 29.1386 21.9179 30.2177L22.5639 30.8638C22.2097 31.5477 21.9137 32.2622 21.6806 32.9951H20.7673C19.2415 32.9952 18 34.2366 18 35.7626V38.5253C18 40.0513 19.2415 41.2926 20.7674 41.2926H21.6806C21.9138 42.0256 22.2098 42.7398 22.564 43.424L21.9179 44.07C20.8388 45.1491 20.8388 46.9047 21.9179 47.984L23.8713 49.9373C24.3942 50.46 25.0892 50.7479 25.8283 50.7479C26.5674 50.7479 27.2624 50.4599 27.7851 49.9373L28.4312 49.2912C29.1151 49.6454 29.8295 49.9412 30.5626 50.1745V51.0878C30.5626 52.6137 31.804 53.8553 33.33 53.8553H35.7261C35.5044 53.3269 35.3878 52.7549 35.3877 52.1648C35.3875 50.9976 35.8418 49.9003 36.6671 49.0751L44.5749 41.1671ZM34.7112 44.571C30.6159 44.571 27.284 41.2392 27.284 37.144C27.284 33.0485 30.6159 29.7166 34.7112 29.7166C38.8066 29.7166 42.1384 33.0485 42.1384 37.144C42.1384 41.2392 38.8066 44.571 34.7112 44.571Z" fill="#FFBB00"/>
<path d="M57.4823 38.3074L57.4527 38.2777C57.3655 38.1903 57.2495 38.1451 57.1239 38.1413C57.0008 38.1413 56.8827 38.19 56.7957 38.2773L54.7907 40.2823C54.4839 40.5891 54.0759 40.7581 53.6418 40.7581C53.2077 40.7581 52.7995 40.5891 52.4925 40.2819C52.1855 39.9751 52.0164 39.567 52.0164 39.1328C52.0165 38.6987 52.1855 38.2906 52.4923 37.9838L54.4973 35.9788C54.5845 35.8916 54.6333 35.7733 54.6332 35.6502C54.6331 35.5269 54.584 35.4088 54.4967 35.3218L54.4676 35.2928C54.1329 34.9581 53.6878 34.7736 53.2143 34.7736C53.0598 34.7736 52.9057 34.794 52.7561 34.834L48.6388 35.9374C48.029 36.1008 47.5488 36.5809 47.3857 37.1903C47.3846 37.1941 47.3837 37.1978 47.3828 37.2016L46.2857 41.7566L38.1467 49.8955C37.5406 50.5015 37.2069 51.3073 37.207 52.1645C37.2072 53.0216 37.5411 53.8273 38.1471 54.4334L38.341 54.6273C38.947 55.2335 39.753 55.5673 40.6103 55.5673C41.4673 55.5673 42.2729 55.2336 42.879 54.6277L51.018 46.4887L55.5729 45.3917C55.5767 45.3908 55.5805 45.3897 55.5842 45.3889C56.1935 45.2257 56.6737 44.7457 56.8372 44.1359L57.9405 40.0183C58.1036 39.4088 57.9278 38.7531 57.4823 38.3074Z" fill="#FFBB00"/>
</svg>
