<svg width="75" height="75" viewBox="0 0 75 75" fill="none" xmlns="http://www.w3.org/2000/svg">
<circle cx="37.5" cy="37.5" r="36" stroke="#FFBB00" stroke-width="3"/>
<path d="M41.4554 17H34.1827C33.5802 17 33.0918 17.4884 33.0918 18.0909V20.2727C33.0918 20.8752 33.5802 21.3636 34.1827 21.3636H41.4554C42.0579 21.3636 42.5463 20.8752 42.5463 20.2727V18.0909C42.5463 17.4884 42.0579 17 41.4554 17Z" fill="#FFBB00"/>
<path d="M38.8187 40.6363C38.2664 40.6363 37.8187 40.1886 37.8187 39.6363V29.2727C37.8187 28.7204 37.3694 28.2685 36.8189 28.3127C30.4673 28.8234 25.4551 34.1555 25.4551 40.6363C25.4551 47.4537 31.0013 53 37.8187 53C44.2995 53 49.6317 47.9878 50.1423 41.6361C50.1866 41.0856 49.7346 40.6363 49.1823 40.6363H38.8187Z" fill="#FFBB00"/>
<path d="M49.784 29.4866L50.9537 28.3168C51.0564 28.2158 51.138 28.0955 51.1939 27.9628C51.2499 27.8301 51.279 27.6876 51.2795 27.5436C51.2801 27.3996 51.2522 27.2569 51.1974 27.1237C51.1425 26.9906 51.0619 26.8696 50.96 26.7678C50.8582 26.6659 50.7372 26.5853 50.6041 26.5304C50.4709 26.4756 50.3282 26.4477 50.1842 26.4483C50.0402 26.4488 49.8977 26.4779 49.765 26.5339C49.6323 26.5898 49.512 26.6714 49.411 26.7741L48.1935 27.9914C45.849 26.06 43.0112 24.8224 40.0005 24.4182V22.4545H35.6369V24.4182C32.6263 24.8222 29.7885 26.0597 27.4439 27.9909L26.2264 26.7735C26.1255 26.6709 26.0051 26.5892 25.8724 26.5333C25.7397 26.4774 25.5973 26.4483 25.4532 26.4477C25.3092 26.4471 25.1665 26.4751 25.0334 26.5299C24.9002 26.5847 24.7792 26.6654 24.6774 26.7672C24.5756 26.8691 24.4949 26.99 24.4401 27.1232C24.3852 27.2563 24.3573 27.399 24.3579 27.5431C24.3585 27.6871 24.3876 27.8295 24.4435 27.9622C24.4994 28.0949 24.5811 28.2153 24.6837 28.3163L25.8534 29.4861C23.0246 32.5094 21.4521 36.4959 21.4551 40.6363C21.4551 49.6593 28.7958 57 37.8187 57C46.8416 57 54.1824 49.6593 54.1824 40.6363C54.1852 36.4961 52.6127 32.5098 49.784 29.4866ZM37.8187 54.0909C35.1577 54.0909 32.5564 53.3018 30.3438 51.8234C28.1312 50.345 26.4067 48.2437 25.3883 45.7852C24.37 43.3267 24.1036 40.6214 24.6227 38.0115C25.1418 35.4016 26.4233 33.0042 28.3049 31.1225C30.1866 29.2409 32.5839 27.9595 35.1939 27.4403C37.8038 26.9212 40.5091 27.1876 42.9676 28.206C45.4261 29.2243 47.5274 30.9488 49.0058 33.1614C50.4842 35.374 51.2733 37.9753 51.2733 40.6363C51.2733 42.4032 50.9253 44.1528 50.2491 45.7852C49.5729 47.4176 48.5819 48.9008 47.3325 50.1501C46.0832 51.3995 44.5999 52.3906 42.9676 53.0667C41.3352 53.7429 39.5856 54.0909 37.8187 54.0909Z" fill="#FFBB00"/>
</svg>
