<svg width="75" height="75" viewBox="0 0 75 75" fill="none" xmlns="http://www.w3.org/2000/svg">
<circle cx="37.5" cy="37.5" r="36" stroke="#FFBB00" stroke-width="3"/>
<path d="M55.3709 23.5982C55.2991 23.0825 54.928 22.6583 54.4264 22.5188L38.3497 18.0479C38.1205 17.9841 37.8785 17.9841 37.6491 18.0479L21.5724 22.5188C21.0708 22.6583 20.6997 23.0823 20.6279 23.5982C20.5347 24.2687 18.4074 40.1112 23.8636 47.9923C29.3134 55.864 37.353 57.8813 37.6925 57.9634C37.7934 57.9878 37.8962 57.9998 37.9994 57.9998C38.1026 57.9998 38.2054 57.9876 38.3063 57.9634C38.646 57.8813 46.6856 55.864 52.1352 47.9923C57.5914 40.1113 55.4642 24.2689 55.3709 23.5982ZM48.3668 32.8472L37.4009 43.8131C37.1457 44.0683 36.8111 44.1961 36.4766 44.1961C36.1422 44.1961 35.8075 44.0685 35.5524 43.8131L28.7722 37.033C28.527 36.7879 28.3893 36.4554 28.3893 36.1087C28.3893 35.7621 28.5272 35.4295 28.7722 35.1845L30.1184 33.8382C30.629 33.3279 31.4567 33.3277 31.967 33.8382L36.4766 38.3479L45.172 29.6523C45.4171 29.407 45.7496 29.2693 46.0963 29.2693C46.443 29.2693 46.7755 29.407 47.0206 29.6523L48.3668 30.9985C48.8773 31.509 48.8773 32.3367 48.3668 32.8472Z" fill="#FFBB00"/>
</svg>
