<svg width="75" height="75" viewBox="0 0 75 75" fill="none" xmlns="http://www.w3.org/2000/svg">
<circle cx="37.5" cy="37.5" r="36" stroke="#FFBB00" stroke-width="3"/>
<g clip-path="url(#clip0_1_508)">
<path d="M29.9051 23.5577V57.0911C29.9051 57.6151 29.6563 58.1083 29.2358 58.4198C28.9484 58.6312 28.6038 58.7424 28.2538 58.7424C28.0919 58.7424 27.9279 58.7182 27.7694 58.6698L19.1659 56.0221C18.4734 55.8107 18 55.17 18 54.4434V20.909C18 20.385 18.2488 19.8918 18.6693 19.5802C19.091 19.2675 19.6359 19.1751 20.1357 19.3303L28.7393 21.978C29.4317 22.1915 29.9051 22.8311 29.9051 23.5577ZM56.8319 21.9802L48.2295 19.3325C47.7286 19.1773 47.187 19.2697 46.7631 19.5824C46.3415 19.894 46.0949 20.3861 46.0949 20.9112V54.4445C46.0949 55.17 46.5683 55.8096 47.2618 56.0232L55.8654 58.6709C56.025 58.7193 56.1879 58.7435 56.3487 58.7435C56.6943 58.7435 57.0411 58.6301 57.3318 58.421C57.7534 58.1094 58 57.6173 58 57.0922V23.5588C57.9989 22.8311 57.5244 22.1915 56.8319 21.9802ZM43.281 19.5813C42.8594 19.2697 42.3155 19.1773 41.8146 19.3314L33.2122 21.9802C32.5186 22.1926 32.0452 22.8334 32.0452 23.5588V57.0922C32.0452 57.6162 32.294 58.1094 32.7146 58.421C33.003 58.6312 33.3465 58.7435 33.6966 58.7435C33.8584 58.7435 34.0225 58.7193 34.181 58.6709L42.7878 56.0232C43.4803 55.8129 43.9537 55.1722 43.9537 54.4445V20.9101C43.9503 20.385 43.7037 19.894 43.281 19.5813Z" fill="#FFBB00"/>
</g>
<defs>
<clipPath id="clip0_1_508">
<rect width="40" height="40" fill="white" transform="translate(18 19)"/>
</clipPath>
</defs>
</svg>
