<svg width="75" height="75" viewBox="0 0 75 75" fill="none" xmlns="http://www.w3.org/2000/svg">
<circle cx="37.5" cy="37.5" r="36" stroke="#FFBB00" stroke-width="3"/>
<path d="M50.329 54.1644V50.1731C50.329 45.4723 46.6966 42.6608 43.2056 39.9178C42.7234 39.5398 42.1097 38.8219 42.1097 37.726C42.1097 36.6302 42.6626 35.5616 43.2056 35.1046C46.6023 32.2466 50.329 29.5501 50.329 24.8493V21.8356H53.0687V18H22.9316V21.8356H25.6713V24.8494C25.6713 29.5502 29.3979 32.2466 32.7947 35.1047C33.3377 35.5617 33.8906 36.6302 33.8906 37.7261C33.8906 38.822 33.2769 39.5398 32.7947 39.9179C29.3038 42.6609 25.6713 45.4724 25.6713 50.1732V54.1645H22.9316V58H53.0686V54.1644H50.329ZM31.0813 28.4109C30.0713 27.2679 29.507 26.1677 29.507 24.8493V21.8356H46.4933V24.8494C46.4933 26.1677 45.9288 27.268 44.9191 28.411H31.0813V28.4109ZM46.4933 53.0954L40.0423 50.5777C38.9191 50.1393 37.0818 50.1393 35.9585 50.5777L29.507 53.0955V50.1734C29.507 47.5136 31.621 45.7175 35.0709 43.0073L35.1623 42.9356C36.4719 41.9088 37.3213 40.4787 37.6095 38.9027C37.8676 38.9602 38.1328 38.9602 38.3909 38.9027C38.678 40.4781 39.5284 41.9083 40.8363 42.934L40.9294 43.0073C44.3792 45.7173 46.4932 47.513 46.4932 50.1733V53.0954H46.4933Z" fill="#FFBB00"/>
</svg>
